<svg width="480" height="446" viewBox="0 0 480 446" fill="none" xmlns="http://www.w3.org/2000/svg">
<path d="M243.811 360.76H98.5605" stroke="#ACACAC" stroke-width="1.5"/>
<path d="M383.402 360.76H241.151" stroke="#ACACAC" stroke-width="1.5"/>
<path d="M230.395 15.7896V88.5093" stroke="#ACACAC" stroke-width="1.5"/>
<path d="M230.395 111.54V184.259" stroke="#ACACAC" stroke-width="1.5"/>
<path d="M230.395 202.142V274.862" stroke="#ACACAC" stroke-width="1.5"/>
<path d="M230.395 288.815V361.535" stroke="#ACACAC" stroke-width="1.5"/>
<path d="M383.402 359.804V390.524" stroke="#ACACAC" stroke-width="1.5"/>
<path d="M98.3889 360.016L98.3887 390.524" stroke="#ACACAC" stroke-width="1.5"/>
<rect x="132.404" y="1.81396" width="194.777" height="37.5277" rx="5" fill="#3F6ECC" stroke="#3F6ECC" stroke-width="2"/>
<rect x="132.404" y="91.0962" width="194.777" height="37.5277" rx="5" fill="white" stroke="#ACACAC" stroke-width="2"/>
<rect x="132.404" y="192.014" width="194.777" height="37.5277" rx="5" fill="white" stroke="#ACACAC" stroke-width="2"/>
<rect x="132.404" y="282.617" width="194.777" height="37.5277" rx="5" fill="white" stroke="#ACACAC" stroke-width="2"/>
<rect x="1" y="406.534" width="194.777" height="37.5277" rx="5" fill="white" stroke="#ACACAC" stroke-width="2"/>
<rect x="284.014" y="406.534" width="194.777" height="37.5277" rx="5" fill="white" stroke="#ACACAC" stroke-width="2"/>
<path d="M73.5303 427.312H70.2256L69.5342 429.298H67.9932L71.2158 420.767H72.5459L75.7744 429.298H74.2275L73.5303 427.312ZM70.6416 426.116H73.1143L71.8779 422.577L70.6416 426.116ZM81.8799 426.192C81.8799 427.173 81.6572 427.956 81.2119 428.542C80.7666 429.124 80.1689 429.415 79.4189 429.415C78.7236 429.415 78.167 429.187 77.749 428.729V431.735H76.3252V422.958H77.6377L77.6963 423.603C78.1143 423.095 78.6826 422.841 79.4014 422.841C80.1748 422.841 80.7803 423.13 81.2178 423.708C81.6592 424.282 81.8799 425.081 81.8799 426.104V426.192ZM80.4619 426.069C80.4619 425.437 80.335 424.935 80.0811 424.563C79.8311 424.192 79.4717 424.007 79.0029 424.007C78.4209 424.007 78.0029 424.247 77.749 424.728V427.54C78.0068 428.032 78.4287 428.278 79.0146 428.278C79.4678 428.278 79.8213 428.097 80.0752 427.733C80.333 427.366 80.4619 426.812 80.4619 426.069ZM88.6416 426.192C88.6416 427.173 88.4189 427.956 87.9736 428.542C87.5283 429.124 86.9307 429.415 86.1807 429.415C85.4854 429.415 84.9287 429.187 84.5107 428.729V431.735H83.0869V422.958H84.3994L84.458 423.603C84.876 423.095 85.4443 422.841 86.1631 422.841C86.9365 422.841 87.542 423.13 87.9795 423.708C88.4209 424.282 88.6416 425.081 88.6416 426.104V426.192ZM87.2236 426.069C87.2236 425.437 87.0967 424.935 86.8428 424.563C86.5928 424.192 86.2334 424.007 85.7646 424.007C85.1826 424.007 84.7646 424.247 84.5107 424.728V427.54C84.7686 428.032 85.1904 428.278 85.7764 428.278C86.2295 428.278 86.583 428.097 86.8369 427.733C87.0947 427.366 87.2236 426.812 87.2236 426.069ZM91.3662 429.298H89.9424V420.298H91.3662V429.298ZM94.4365 429.298H93.0127V422.958H94.4365V429.298ZM92.9248 421.312C92.9248 421.093 92.9932 420.911 93.1299 420.767C93.2705 420.622 93.4697 420.55 93.7275 420.55C93.9854 420.55 94.1846 420.622 94.3252 420.767C94.4658 420.911 94.5361 421.093 94.5361 421.312C94.5361 421.526 94.4658 421.706 94.3252 421.851C94.1846 421.991 93.9854 422.062 93.7275 422.062C93.4697 422.062 93.2705 421.991 93.1299 421.851C92.9932 421.706 92.9248 421.526 92.9248 421.312ZM98.5967 428.278C98.9521 428.278 99.2471 428.175 99.4814 427.968C99.7158 427.761 99.8408 427.505 99.8564 427.2H101.198C101.183 427.595 101.06 427.964 100.829 428.308C100.599 428.647 100.286 428.917 99.8916 429.116C99.4971 429.315 99.0713 429.415 98.6143 429.415C97.7275 429.415 97.0244 429.128 96.5049 428.554C95.9854 427.979 95.7256 427.187 95.7256 426.175V426.028C95.7256 425.063 95.9834 424.292 96.499 423.714C97.0146 423.132 97.7178 422.841 98.6084 422.841C99.3623 422.841 99.9756 423.062 100.448 423.503C100.925 423.94 101.175 424.517 101.198 425.231H99.8564C99.8408 424.868 99.7158 424.569 99.4814 424.335C99.251 424.101 98.9561 423.983 98.5967 423.983C98.1357 423.983 97.7803 424.151 97.5303 424.487C97.2803 424.819 97.1533 425.325 97.1494 426.005V426.233C97.1494 426.921 97.2725 427.435 97.5186 427.774C97.7686 428.11 98.1279 428.278 98.5967 428.278ZM106.062 429.298C105.999 429.177 105.944 428.979 105.897 428.706C105.444 429.179 104.89 429.415 104.233 429.415C103.597 429.415 103.077 429.233 102.675 428.87C102.272 428.507 102.071 428.058 102.071 427.522C102.071 426.847 102.321 426.329 102.821 425.97C103.325 425.606 104.044 425.425 104.978 425.425H105.851V425.009C105.851 424.681 105.759 424.419 105.575 424.224C105.392 424.024 105.112 423.925 104.737 423.925C104.413 423.925 104.147 424.007 103.94 424.171C103.733 424.331 103.63 424.536 103.63 424.786H102.206C102.206 424.438 102.321 424.114 102.552 423.813C102.782 423.509 103.095 423.271 103.489 423.099C103.888 422.927 104.331 422.841 104.819 422.841C105.562 422.841 106.153 423.028 106.595 423.403C107.036 423.774 107.263 424.298 107.274 424.974V427.833C107.274 428.403 107.354 428.858 107.515 429.198V429.298H106.062ZM104.497 428.272C104.778 428.272 105.042 428.204 105.288 428.067C105.538 427.931 105.726 427.747 105.851 427.517V426.321H105.083C104.556 426.321 104.159 426.413 103.894 426.597C103.628 426.78 103.495 427.04 103.495 427.376C103.495 427.649 103.585 427.868 103.765 428.032C103.948 428.192 104.192 428.272 104.497 428.272ZM110.55 421.417V422.958H111.669V424.013H110.55V427.552C110.55 427.794 110.597 427.97 110.69 428.079C110.788 428.185 110.96 428.237 111.206 428.237C111.37 428.237 111.536 428.218 111.704 428.179V429.28C111.38 429.37 111.067 429.415 110.767 429.415C109.673 429.415 109.126 428.812 109.126 427.604V424.013H108.083V422.958H109.126V421.417H110.55ZM114.276 429.298H112.853V422.958H114.276V429.298ZM112.765 421.312C112.765 421.093 112.833 420.911 112.97 420.767C113.11 420.622 113.31 420.55 113.567 420.55C113.825 420.55 114.024 420.622 114.165 420.767C114.306 420.911 114.376 421.093 114.376 421.312C114.376 421.526 114.306 421.706 114.165 421.851C114.024 421.991 113.825 422.062 113.567 422.062C113.31 422.062 113.11 421.991 112.97 421.851C112.833 421.706 112.765 421.526 112.765 421.312ZM115.565 426.069C115.565 425.448 115.688 424.89 115.935 424.394C116.181 423.894 116.526 423.511 116.972 423.245C117.417 422.976 117.929 422.841 118.507 422.841C119.362 422.841 120.056 423.116 120.587 423.667C121.122 424.218 121.411 424.948 121.454 425.858L121.46 426.192C121.46 426.817 121.339 427.376 121.097 427.868C120.858 428.36 120.515 428.741 120.065 429.011C119.62 429.28 119.104 429.415 118.519 429.415C117.624 429.415 116.907 429.118 116.368 428.524C115.833 427.927 115.565 427.132 115.565 426.14V426.069ZM116.989 426.192C116.989 426.845 117.124 427.356 117.394 427.728C117.663 428.095 118.038 428.278 118.519 428.278C118.999 428.278 119.372 428.091 119.638 427.716C119.907 427.341 120.042 426.792 120.042 426.069C120.042 425.429 119.903 424.921 119.626 424.546C119.353 424.171 118.979 423.983 118.507 423.983C118.042 423.983 117.673 424.169 117.399 424.54C117.126 424.907 116.989 425.458 116.989 426.192ZM123.985 422.958L124.026 423.69C124.495 423.124 125.11 422.841 125.872 422.841C127.192 422.841 127.864 423.597 127.888 425.108V429.298H126.464V425.19C126.464 424.788 126.376 424.491 126.2 424.3C126.028 424.104 125.745 424.007 125.351 424.007C124.776 424.007 124.349 424.267 124.067 424.786V429.298H122.644V422.958H123.985Z" fill="#ACACAC"/>
<path d="M184.17 302.603C184.084 303.513 183.748 304.224 183.162 304.736C182.576 305.244 181.797 305.498 180.824 305.498C180.145 305.498 179.545 305.337 179.025 305.017C178.51 304.693 178.111 304.234 177.83 303.64C177.549 303.046 177.402 302.357 177.391 301.572V300.775C177.391 299.97 177.533 299.261 177.818 298.648C178.104 298.035 178.512 297.562 179.043 297.23C179.578 296.898 180.195 296.732 180.895 296.732C181.836 296.732 182.594 296.988 183.168 297.5C183.742 298.011 184.076 298.734 184.17 299.667H182.693C182.623 299.054 182.443 298.613 182.154 298.343C181.869 298.07 181.449 297.933 180.895 297.933C180.25 297.933 179.754 298.169 179.406 298.642C179.062 299.111 178.887 299.8 178.879 300.71V301.466C178.879 302.388 179.043 303.091 179.371 303.576C179.703 304.06 180.188 304.302 180.824 304.302C181.406 304.302 181.844 304.171 182.137 303.91C182.43 303.648 182.615 303.212 182.693 302.603H184.17ZM186.877 305.38H185.453V296.38H186.877V305.38ZM189.947 305.38H188.523V299.041H189.947V305.38ZM188.436 297.394C188.436 297.175 188.504 296.994 188.641 296.849C188.781 296.705 188.98 296.632 189.238 296.632C189.496 296.632 189.695 296.705 189.836 296.849C189.977 296.994 190.047 297.175 190.047 297.394C190.047 297.609 189.977 297.789 189.836 297.933C189.695 298.074 189.496 298.144 189.238 298.144C188.98 298.144 188.781 298.074 188.641 297.933C188.504 297.789 188.436 297.609 188.436 297.394ZM194.295 305.498C193.393 305.498 192.66 305.214 192.098 304.648C191.539 304.078 191.26 303.32 191.26 302.375V302.199C191.26 301.566 191.381 301.001 191.623 300.505C191.869 300.005 192.213 299.617 192.654 299.339C193.096 299.062 193.588 298.923 194.131 298.923C194.994 298.923 195.66 299.199 196.129 299.75C196.602 300.3 196.838 301.08 196.838 302.087V302.662H192.695C192.738 303.185 192.912 303.599 193.217 303.904C193.525 304.208 193.912 304.361 194.377 304.361C195.029 304.361 195.561 304.097 195.971 303.57L196.738 304.302C196.484 304.681 196.145 304.976 195.719 305.187C195.297 305.394 194.822 305.498 194.295 305.498ZM194.125 300.066C193.734 300.066 193.418 300.203 193.176 300.476C192.938 300.75 192.785 301.13 192.719 301.619H195.432V301.513C195.4 301.037 195.273 300.677 195.051 300.435C194.828 300.189 194.52 300.066 194.125 300.066ZM199.27 299.041L199.311 299.773C199.779 299.207 200.395 298.923 201.156 298.923C202.477 298.923 203.148 299.679 203.172 301.191V305.38H201.748V301.273C201.748 300.871 201.66 300.574 201.484 300.382C201.312 300.187 201.029 300.089 200.635 300.089C200.061 300.089 199.633 300.349 199.352 300.869V305.38H197.928V299.041H199.27ZM206.412 297.5V299.041H207.531V300.095H206.412V303.634C206.412 303.876 206.459 304.052 206.553 304.162C206.65 304.267 206.822 304.32 207.068 304.32C207.232 304.32 207.398 304.3 207.566 304.261V305.363C207.242 305.453 206.93 305.498 206.629 305.498C205.535 305.498 204.988 304.894 204.988 303.687V300.095H203.945V299.041H204.988V297.5H206.412ZM214.885 302.093H213.232V305.38H211.75V296.849H214.75C215.734 296.849 216.494 297.07 217.029 297.511C217.564 297.953 217.832 298.591 217.832 299.427C217.832 299.998 217.693 300.476 217.416 300.863C217.143 301.246 216.76 301.541 216.268 301.748L218.184 305.304V305.38H216.596L214.885 302.093ZM213.232 300.904H214.756C215.256 300.904 215.646 300.779 215.928 300.529C216.209 300.275 216.35 299.929 216.35 299.492C216.35 299.035 216.219 298.681 215.957 298.431C215.699 298.181 215.312 298.052 214.797 298.044H213.232V300.904ZM221.893 305.498C220.99 305.498 220.258 305.214 219.695 304.648C219.137 304.078 218.857 303.32 218.857 302.375V302.199C218.857 301.566 218.979 301.001 219.221 300.505C219.467 300.005 219.811 299.617 220.252 299.339C220.693 299.062 221.186 298.923 221.729 298.923C222.592 298.923 223.258 299.199 223.727 299.75C224.199 300.3 224.436 301.08 224.436 302.087V302.662H220.293C220.336 303.185 220.51 303.599 220.814 303.904C221.123 304.208 221.51 304.361 221.975 304.361C222.627 304.361 223.158 304.097 223.568 303.57L224.336 304.302C224.082 304.681 223.742 304.976 223.316 305.187C222.895 305.394 222.42 305.498 221.893 305.498ZM221.723 300.066C221.332 300.066 221.016 300.203 220.773 300.476C220.535 300.75 220.383 301.13 220.316 301.619H223.029V301.513C222.998 301.037 222.871 300.677 222.648 300.435C222.426 300.189 222.117 300.066 221.723 300.066ZM225.279 302.158C225.279 301.166 225.506 300.378 225.959 299.796C226.412 299.214 227.025 298.923 227.799 298.923C228.506 298.923 229.066 299.171 229.48 299.667L229.562 299.041H230.828V307.818H229.404V304.841C228.99 305.279 228.451 305.498 227.787 305.498C227.029 305.498 226.422 305.203 225.965 304.613C225.508 304.019 225.279 303.201 225.279 302.158ZM226.703 302.281C226.703 302.929 226.83 303.439 227.084 303.81C227.342 304.177 227.697 304.361 228.15 304.361C228.713 304.361 229.131 304.121 229.404 303.64V300.757C229.131 300.296 228.717 300.066 228.162 300.066C227.709 300.066 227.352 300.248 227.09 300.611C226.832 300.974 226.703 301.531 226.703 302.281ZM236.207 304.759C235.789 305.251 235.195 305.498 234.426 305.498C233.738 305.498 233.217 305.296 232.861 304.894C232.51 304.492 232.334 303.91 232.334 303.148V299.041H233.758V303.13C233.758 303.935 234.092 304.337 234.76 304.337C235.451 304.337 235.918 304.089 236.16 303.593V299.041H237.584V305.38H236.242L236.207 304.759ZM241.826 305.498C240.924 305.498 240.191 305.214 239.629 304.648C239.07 304.078 238.791 303.32 238.791 302.375V302.199C238.791 301.566 238.912 301.001 239.154 300.505C239.4 300.005 239.744 299.617 240.186 299.339C240.627 299.062 241.119 298.923 241.662 298.923C242.525 298.923 243.191 299.199 243.66 299.75C244.133 300.3 244.369 301.08 244.369 302.087V302.662H240.227C240.27 303.185 240.443 303.599 240.748 303.904C241.057 304.208 241.443 304.361 241.908 304.361C242.561 304.361 243.092 304.097 243.502 303.57L244.27 304.302C244.016 304.681 243.676 304.976 243.25 305.187C242.828 305.394 242.354 305.498 241.826 305.498ZM241.656 300.066C241.266 300.066 240.949 300.203 240.707 300.476C240.469 300.75 240.316 301.13 240.25 301.619H242.963V301.513C242.932 301.037 242.805 300.677 242.582 300.435C242.359 300.189 242.051 300.066 241.656 300.066ZM249.033 303.658C249.033 303.404 248.928 303.21 248.717 303.078C248.51 302.945 248.164 302.828 247.68 302.726C247.195 302.625 246.791 302.496 246.467 302.339C245.756 301.996 245.4 301.498 245.4 300.845C245.4 300.298 245.631 299.841 246.092 299.474C246.553 299.107 247.139 298.923 247.85 298.923C248.607 298.923 249.219 299.111 249.684 299.486C250.152 299.861 250.387 300.347 250.387 300.945H248.963C248.963 300.671 248.861 300.445 248.658 300.265C248.455 300.082 248.186 299.99 247.85 299.99C247.537 299.99 247.281 300.062 247.082 300.207C246.887 300.351 246.789 300.544 246.789 300.787C246.789 301.005 246.881 301.175 247.064 301.296C247.248 301.417 247.619 301.541 248.178 301.666C248.736 301.787 249.174 301.933 249.49 302.105C249.811 302.273 250.047 302.476 250.199 302.714C250.355 302.953 250.434 303.242 250.434 303.582C250.434 304.152 250.197 304.615 249.725 304.97C249.252 305.322 248.633 305.498 247.867 305.498C247.348 305.498 246.885 305.404 246.479 305.216C246.072 305.029 245.756 304.771 245.529 304.443C245.303 304.115 245.189 303.761 245.189 303.382H246.572C246.592 303.718 246.719 303.978 246.953 304.162C247.188 304.341 247.498 304.431 247.885 304.431C248.26 304.431 248.545 304.361 248.74 304.22C248.936 304.076 249.033 303.888 249.033 303.658ZM253.463 297.5V299.041H254.582V300.095H253.463V303.634C253.463 303.876 253.51 304.052 253.604 304.162C253.701 304.267 253.873 304.32 254.119 304.32C254.283 304.32 254.449 304.3 254.617 304.261V305.363C254.293 305.453 253.98 305.498 253.68 305.498C252.586 305.498 252.039 304.894 252.039 303.687V300.095H250.996V299.041H252.039V297.5H253.463ZM264.613 298.044H261.953V305.38H260.482V298.044H257.846V296.849H264.613V298.044ZM267.338 303.341L268.627 299.041H270.145L267.625 306.341C267.238 307.408 266.582 307.941 265.656 307.941C265.449 307.941 265.221 307.906 264.971 307.835V306.734L265.24 306.751C265.6 306.751 265.869 306.685 266.049 306.552C266.232 306.423 266.377 306.205 266.482 305.896L266.688 305.351L264.461 299.041H265.996L267.338 303.341ZM276.52 302.275C276.52 303.255 276.297 304.039 275.852 304.625C275.406 305.207 274.809 305.498 274.059 305.498C273.363 305.498 272.807 305.269 272.389 304.812V307.818H270.965V299.041H272.277L272.336 299.685C272.754 299.177 273.322 298.923 274.041 298.923C274.814 298.923 275.42 299.212 275.857 299.791C276.299 300.365 276.52 301.164 276.52 302.187V302.275ZM275.102 302.152C275.102 301.519 274.975 301.017 274.721 300.646C274.471 300.275 274.111 300.089 273.643 300.089C273.061 300.089 272.643 300.33 272.389 300.81V303.623C272.646 304.115 273.068 304.361 273.654 304.361C274.107 304.361 274.461 304.179 274.715 303.816C274.973 303.449 275.102 302.894 275.102 302.152ZM280.521 305.498C279.619 305.498 278.887 305.214 278.324 304.648C277.766 304.078 277.486 303.32 277.486 302.375V302.199C277.486 301.566 277.607 301.001 277.85 300.505C278.096 300.005 278.439 299.617 278.881 299.339C279.322 299.062 279.814 298.923 280.357 298.923C281.221 298.923 281.887 299.199 282.355 299.75C282.828 300.3 283.064 301.08 283.064 302.087V302.662H278.922C278.965 303.185 279.139 303.599 279.443 303.904C279.752 304.208 280.139 304.361 280.604 304.361C281.256 304.361 281.787 304.097 282.197 303.57L282.965 304.302C282.711 304.681 282.371 304.976 281.945 305.187C281.523 305.394 281.049 305.498 280.521 305.498ZM280.352 300.066C279.961 300.066 279.645 300.203 279.402 300.476C279.164 300.75 279.012 301.13 278.945 301.619H281.658V301.513C281.627 301.037 281.5 300.677 281.277 300.435C281.055 300.189 280.746 300.066 280.352 300.066Z" fill="#ACACAC"/>
<path d="M190.165 212.92L192.333 206.247H193.962L190.892 214.778H189.456L186.397 206.247H188.021L190.165 212.92ZM197.325 214.895C196.423 214.895 195.69 214.612 195.128 214.045C194.569 213.475 194.29 212.717 194.29 211.772V211.596C194.29 210.963 194.411 210.399 194.653 209.903C194.899 209.403 195.243 209.014 195.685 208.737C196.126 208.459 196.618 208.321 197.161 208.321C198.024 208.321 198.69 208.596 199.159 209.147C199.632 209.698 199.868 210.477 199.868 211.485V212.059H195.726C195.769 212.583 195.942 212.997 196.247 213.301C196.556 213.606 196.942 213.758 197.407 213.758C198.06 213.758 198.591 213.495 199.001 212.967L199.769 213.7C199.515 214.079 199.175 214.374 198.749 214.584C198.327 214.792 197.853 214.895 197.325 214.895ZM197.155 209.463C196.765 209.463 196.448 209.6 196.206 209.874C195.968 210.147 195.815 210.528 195.749 211.016H198.462V210.911C198.431 210.434 198.304 210.075 198.081 209.833C197.858 209.586 197.55 209.463 197.155 209.463ZM204.298 209.739C204.11 209.708 203.917 209.692 203.718 209.692C203.065 209.692 202.626 209.942 202.399 210.442V214.778H200.976V208.438H202.335L202.37 209.147C202.714 208.596 203.19 208.321 203.8 208.321C204.003 208.321 204.171 208.348 204.304 208.403L204.298 209.739ZM206.712 214.778H205.288V208.438H206.712V214.778ZM205.2 206.792C205.2 206.573 205.269 206.391 205.405 206.247C205.546 206.102 205.745 206.03 206.003 206.03C206.261 206.03 206.46 206.102 206.601 206.247C206.741 206.391 206.812 206.573 206.812 206.792C206.812 207.006 206.741 207.186 206.601 207.331C206.46 207.471 206.261 207.542 206.003 207.542C205.745 207.542 205.546 207.471 205.405 207.331C205.269 207.186 205.2 207.006 205.2 206.792ZM208.769 214.778V209.493H207.802V208.438H208.769V207.858C208.769 207.155 208.964 206.612 209.354 206.229C209.745 205.846 210.292 205.655 210.995 205.655C211.245 205.655 211.511 205.69 211.792 205.76L211.757 206.874C211.601 206.842 211.419 206.827 211.212 206.827C210.532 206.827 210.192 207.176 210.192 207.875V208.438H211.481V209.493H210.192V214.778H208.769ZM214.739 212.739L216.028 208.438H217.546L215.026 215.739C214.64 216.805 213.983 217.338 213.058 217.338C212.851 217.338 212.622 217.303 212.372 217.233V216.131L212.642 216.149C213.001 216.149 213.271 216.083 213.45 215.95C213.634 215.821 213.778 215.602 213.884 215.293L214.089 214.749L211.862 208.438H213.397L214.739 212.739ZM227.308 207.442H224.647V214.778H223.177V207.442H220.54V206.247H227.308V207.442ZM229.698 209.129C230.163 208.59 230.751 208.321 231.462 208.321C232.813 208.321 233.499 209.092 233.519 210.635V214.778H232.095V210.688C232.095 210.25 231.999 209.942 231.808 209.762C231.62 209.579 231.343 209.487 230.976 209.487C230.405 209.487 229.979 209.741 229.698 210.249V214.778H228.274V205.778H229.698V209.129ZM237.755 214.895C236.853 214.895 236.12 214.612 235.558 214.045C234.999 213.475 234.72 212.717 234.72 211.772V211.596C234.72 210.963 234.841 210.399 235.083 209.903C235.329 209.403 235.673 209.014 236.114 208.737C236.556 208.459 237.048 208.321 237.591 208.321C238.454 208.321 239.12 208.596 239.589 209.147C240.062 209.698 240.298 210.477 240.298 211.485V212.059H236.155C236.198 212.583 236.372 212.997 236.677 213.301C236.985 213.606 237.372 213.758 237.837 213.758C238.489 213.758 239.021 213.495 239.431 212.967L240.198 213.7C239.944 214.079 239.604 214.374 239.179 214.584C238.757 214.792 238.282 214.895 237.755 214.895ZM237.585 209.463C237.194 209.463 236.878 209.6 236.636 209.874C236.397 210.147 236.245 210.528 236.179 211.016H238.892V210.911C238.86 210.434 238.733 210.075 238.511 209.833C238.288 209.586 237.979 209.463 237.585 209.463ZM251.044 212C250.958 212.911 250.622 213.622 250.036 214.133C249.45 214.641 248.671 214.895 247.698 214.895C247.019 214.895 246.419 214.735 245.899 214.415C245.384 214.09 244.985 213.631 244.704 213.038C244.423 212.444 244.276 211.754 244.265 210.969V210.172C244.265 209.368 244.407 208.659 244.692 208.045C244.978 207.432 245.386 206.959 245.917 206.627C246.452 206.295 247.069 206.129 247.769 206.129C248.71 206.129 249.468 206.385 250.042 206.897C250.616 207.409 250.95 208.131 251.044 209.065H249.567C249.497 208.452 249.317 208.01 249.028 207.741C248.743 207.467 248.323 207.331 247.769 207.331C247.124 207.331 246.628 207.567 246.28 208.04C245.937 208.508 245.761 209.198 245.753 210.108V210.864C245.753 211.786 245.917 212.489 246.245 212.973C246.577 213.458 247.062 213.7 247.698 213.7C248.28 213.7 248.718 213.569 249.011 213.307C249.304 213.045 249.489 212.61 249.567 212H251.044ZM253.751 214.778H252.327V205.778H253.751V214.778ZM256.821 214.778H255.397V208.438H256.821V214.778ZM255.31 206.792C255.31 206.573 255.378 206.391 255.515 206.247C255.655 206.102 255.854 206.03 256.112 206.03C256.37 206.03 256.569 206.102 256.71 206.247C256.851 206.391 256.921 206.573 256.921 206.792C256.921 207.006 256.851 207.186 256.71 207.331C256.569 207.471 256.37 207.542 256.112 207.542C255.854 207.542 255.655 207.471 255.515 207.331C255.378 207.186 255.31 207.006 255.31 206.792ZM261.169 214.895C260.267 214.895 259.534 214.612 258.972 214.045C258.413 213.475 258.134 212.717 258.134 211.772V211.596C258.134 210.963 258.255 210.399 258.497 209.903C258.743 209.403 259.087 209.014 259.528 208.737C259.97 208.459 260.462 208.321 261.005 208.321C261.868 208.321 262.534 208.596 263.003 209.147C263.476 209.698 263.712 210.477 263.712 211.485V212.059H259.569C259.612 212.583 259.786 212.997 260.091 213.301C260.399 213.606 260.786 213.758 261.251 213.758C261.903 213.758 262.435 213.495 262.845 212.967L263.612 213.7C263.358 214.079 263.019 214.374 262.593 214.584C262.171 214.792 261.696 214.895 261.169 214.895ZM260.999 209.463C260.608 209.463 260.292 209.6 260.05 209.874C259.812 210.147 259.659 210.528 259.593 211.016H262.306V210.911C262.274 210.434 262.147 210.075 261.925 209.833C261.702 209.586 261.394 209.463 260.999 209.463ZM266.144 208.438L266.185 209.17C266.653 208.604 267.269 208.321 268.03 208.321C269.351 208.321 270.022 209.077 270.046 210.588V214.778H268.622V210.67C268.622 210.268 268.534 209.971 268.358 209.78C268.187 209.584 267.903 209.487 267.509 209.487C266.935 209.487 266.507 209.747 266.226 210.266V214.778H264.802V208.438H266.144ZM273.286 206.897V208.438H274.405V209.493H273.286V213.032C273.286 213.274 273.333 213.45 273.427 213.559C273.524 213.665 273.696 213.717 273.942 213.717C274.106 213.717 274.272 213.698 274.44 213.659V214.76C274.116 214.85 273.804 214.895 273.503 214.895C272.409 214.895 271.862 214.292 271.862 213.084V209.493H270.819V208.438H271.862V206.897H273.286Z" fill="#ACACAC"/>
<path d="M186.436 111.874H183.131L182.439 113.86H180.898L184.121 105.329H185.451L188.68 113.86H187.133L186.436 111.874ZM183.547 110.678H186.02L184.783 107.139L183.547 110.678ZM194.785 110.754C194.785 111.735 194.562 112.518 194.117 113.104C193.672 113.686 193.074 113.977 192.324 113.977C191.629 113.977 191.072 113.749 190.654 113.292V116.297H189.23V107.52H190.543L190.602 108.165C191.02 107.657 191.588 107.403 192.307 107.403C193.08 107.403 193.686 107.692 194.123 108.27C194.564 108.844 194.785 109.643 194.785 110.667V110.754ZM193.367 110.631C193.367 109.999 193.24 109.497 192.986 109.125C192.736 108.754 192.377 108.569 191.908 108.569C191.326 108.569 190.908 108.809 190.654 109.29V112.102C190.912 112.594 191.334 112.84 191.92 112.84C192.373 112.84 192.727 112.659 192.98 112.295C193.238 111.928 193.367 111.374 193.367 110.631ZM201.547 110.754C201.547 111.735 201.324 112.518 200.879 113.104C200.434 113.686 199.836 113.977 199.086 113.977C198.391 113.977 197.834 113.749 197.416 113.292V116.297H195.992V107.52H197.305L197.363 108.165C197.781 107.657 198.35 107.403 199.068 107.403C199.842 107.403 200.447 107.692 200.885 108.27C201.326 108.844 201.547 109.643 201.547 110.667V110.754ZM200.129 110.631C200.129 109.999 200.002 109.497 199.748 109.125C199.498 108.754 199.139 108.569 198.67 108.569C198.088 108.569 197.67 108.809 197.416 109.29V112.102C197.674 112.594 198.096 112.84 198.682 112.84C199.135 112.84 199.488 112.659 199.742 112.295C200 111.928 200.129 111.374 200.129 110.631ZM204.271 113.86H202.848V104.86H204.271V113.86ZM207.342 113.86H205.918V107.52H207.342V113.86ZM205.83 105.874C205.83 105.655 205.898 105.473 206.035 105.329C206.176 105.184 206.375 105.112 206.633 105.112C206.891 105.112 207.09 105.184 207.23 105.329C207.371 105.473 207.441 105.655 207.441 105.874C207.441 106.088 207.371 106.268 207.23 106.413C207.09 106.553 206.891 106.624 206.633 106.624C206.375 106.624 206.176 106.553 206.035 106.413C205.898 106.268 205.83 106.088 205.83 105.874ZM211.502 112.84C211.857 112.84 212.152 112.737 212.387 112.53C212.621 112.323 212.746 112.067 212.762 111.762H214.104C214.088 112.157 213.965 112.526 213.734 112.87C213.504 113.209 213.191 113.479 212.797 113.678C212.402 113.877 211.977 113.977 211.52 113.977C210.633 113.977 209.93 113.69 209.41 113.116C208.891 112.542 208.631 111.749 208.631 110.737V110.59C208.631 109.625 208.889 108.854 209.404 108.276C209.92 107.694 210.623 107.403 211.514 107.403C212.268 107.403 212.881 107.624 213.354 108.065C213.83 108.502 214.08 109.079 214.104 109.793H212.762C212.746 109.43 212.621 109.131 212.387 108.897C212.156 108.663 211.861 108.545 211.502 108.545C211.041 108.545 210.686 108.713 210.436 109.049C210.186 109.381 210.059 109.887 210.055 110.567V110.795C210.055 111.483 210.178 111.997 210.424 112.336C210.674 112.672 211.033 112.84 211.502 112.84ZM218.967 113.86C218.904 113.739 218.85 113.542 218.803 113.268C218.35 113.741 217.795 113.977 217.139 113.977C216.502 113.977 215.982 113.795 215.58 113.432C215.178 113.069 214.977 112.62 214.977 112.084C214.977 111.409 215.227 110.891 215.727 110.532C216.23 110.168 216.949 109.987 217.883 109.987H218.756V109.571C218.756 109.243 218.664 108.981 218.48 108.786C218.297 108.586 218.018 108.487 217.643 108.487C217.318 108.487 217.053 108.569 216.846 108.733C216.639 108.893 216.535 109.098 216.535 109.348H215.111C215.111 109 215.227 108.676 215.457 108.375C215.688 108.071 216 107.833 216.395 107.661C216.793 107.489 217.236 107.403 217.725 107.403C218.467 107.403 219.059 107.59 219.5 107.965C219.941 108.336 220.168 108.86 220.18 109.536V112.395C220.18 112.965 220.26 113.42 220.42 113.76V113.86H218.967ZM217.402 112.834C217.684 112.834 217.947 112.766 218.193 112.629C218.443 112.493 218.631 112.309 218.756 112.079V110.883H217.988C217.461 110.883 217.064 110.975 216.799 111.159C216.533 111.342 216.4 111.602 216.4 111.938C216.4 112.211 216.49 112.43 216.67 112.594C216.854 112.754 217.098 112.834 217.402 112.834ZM223.455 105.979V107.52H224.574V108.575H223.455V112.114C223.455 112.356 223.502 112.532 223.596 112.641C223.693 112.747 223.865 112.799 224.111 112.799C224.275 112.799 224.441 112.78 224.609 112.741V113.842C224.285 113.932 223.973 113.977 223.672 113.977C222.578 113.977 222.031 113.374 222.031 112.167V108.575H220.988V107.52H222.031V105.979H223.455ZM227.182 113.86H225.758V107.52H227.182V113.86ZM225.67 105.874C225.67 105.655 225.738 105.473 225.875 105.329C226.016 105.184 226.215 105.112 226.473 105.112C226.73 105.112 226.93 105.184 227.07 105.329C227.211 105.473 227.281 105.655 227.281 105.874C227.281 106.088 227.211 106.268 227.07 106.413C226.93 106.553 226.73 106.624 226.473 106.624C226.215 106.624 226.016 106.553 225.875 106.413C225.738 106.268 225.67 106.088 225.67 105.874ZM228.471 110.631C228.471 110.01 228.594 109.452 228.84 108.956C229.086 108.456 229.432 108.073 229.877 107.807C230.322 107.538 230.834 107.403 231.412 107.403C232.268 107.403 232.961 107.678 233.492 108.229C234.027 108.78 234.316 109.51 234.359 110.42L234.365 110.754C234.365 111.379 234.244 111.938 234.002 112.43C233.764 112.922 233.42 113.303 232.971 113.573C232.525 113.842 232.01 113.977 231.424 113.977C230.529 113.977 229.812 113.68 229.273 113.086C228.738 112.489 228.471 111.694 228.471 110.702V110.631ZM229.895 110.754C229.895 111.407 230.029 111.918 230.299 112.29C230.568 112.657 230.943 112.84 231.424 112.84C231.904 112.84 232.277 112.653 232.543 112.278C232.812 111.903 232.947 111.354 232.947 110.631C232.947 109.991 232.809 109.483 232.531 109.108C232.258 108.733 231.885 108.545 231.412 108.545C230.947 108.545 230.578 108.731 230.305 109.102C230.031 109.469 229.895 110.02 229.895 110.754ZM236.891 107.52L236.932 108.252C237.4 107.686 238.016 107.403 238.777 107.403C240.098 107.403 240.77 108.159 240.793 109.67V113.86H239.369V109.752C239.369 109.35 239.281 109.053 239.105 108.862C238.934 108.667 238.65 108.569 238.256 108.569C237.682 108.569 237.254 108.829 236.973 109.348V113.86H235.549V107.52H236.891ZM249.834 111.663C249.834 111.288 249.701 110.999 249.436 110.795C249.174 110.592 248.699 110.387 248.012 110.18C247.324 109.973 246.777 109.743 246.371 109.489C245.594 109 245.205 108.364 245.205 107.579C245.205 106.891 245.484 106.325 246.043 105.879C246.605 105.434 247.334 105.211 248.229 105.211C248.822 105.211 249.352 105.321 249.816 105.54C250.281 105.758 250.646 106.071 250.912 106.477C251.178 106.879 251.311 107.327 251.311 107.819H249.834C249.834 107.374 249.693 107.026 249.412 106.776C249.135 106.522 248.736 106.395 248.217 106.395C247.732 106.395 247.355 106.499 247.086 106.706C246.82 106.913 246.688 107.202 246.688 107.573C246.688 107.885 246.832 108.147 247.121 108.358C247.41 108.565 247.887 108.768 248.551 108.967C249.215 109.163 249.748 109.387 250.15 109.641C250.553 109.891 250.848 110.18 251.035 110.508C251.223 110.833 251.316 111.213 251.316 111.651C251.316 112.362 251.043 112.928 250.496 113.35C249.953 113.768 249.215 113.977 248.281 113.977C247.664 113.977 247.096 113.864 246.576 113.637C246.061 113.407 245.658 113.09 245.369 112.688C245.084 112.286 244.941 111.817 244.941 111.282H246.424C246.424 111.766 246.584 112.141 246.904 112.407C247.225 112.672 247.684 112.805 248.281 112.805C248.797 112.805 249.184 112.702 249.441 112.495C249.703 112.284 249.834 112.006 249.834 111.663ZM254.264 105.979V107.52H255.383V108.575H254.264V112.114C254.264 112.356 254.311 112.532 254.404 112.641C254.502 112.747 254.674 112.799 254.92 112.799C255.084 112.799 255.25 112.78 255.418 112.741V113.842C255.094 113.932 254.781 113.977 254.48 113.977C253.387 113.977 252.84 113.374 252.84 112.167V108.575H251.797V107.52H252.84V105.979H254.264ZM260.264 113.86C260.201 113.739 260.146 113.542 260.1 113.268C259.646 113.741 259.092 113.977 258.436 113.977C257.799 113.977 257.279 113.795 256.877 113.432C256.475 113.069 256.273 112.62 256.273 112.084C256.273 111.409 256.523 110.891 257.023 110.532C257.527 110.168 258.246 109.987 259.18 109.987H260.053V109.571C260.053 109.243 259.961 108.981 259.777 108.786C259.594 108.586 259.314 108.487 258.939 108.487C258.615 108.487 258.35 108.569 258.143 108.733C257.936 108.893 257.832 109.098 257.832 109.348H256.408C256.408 109 256.523 108.676 256.754 108.375C256.984 108.071 257.297 107.833 257.691 107.661C258.09 107.489 258.533 107.403 259.021 107.403C259.764 107.403 260.355 107.59 260.797 107.965C261.238 108.336 261.465 108.86 261.477 109.536V112.395C261.477 112.965 261.557 113.42 261.717 113.76V113.86H260.264ZM258.699 112.834C258.98 112.834 259.244 112.766 259.49 112.629C259.74 112.493 259.928 112.309 260.053 112.079V110.883H259.285C258.758 110.883 258.361 110.975 258.096 111.159C257.83 111.342 257.697 111.602 257.697 111.938C257.697 112.211 257.787 112.43 257.967 112.594C258.15 112.754 258.395 112.834 258.699 112.834ZM264.752 105.979V107.52H265.871V108.575H264.752V112.114C264.752 112.356 264.799 112.532 264.893 112.641C264.99 112.747 265.162 112.799 265.408 112.799C265.572 112.799 265.738 112.78 265.906 112.741V113.842C265.582 113.932 265.27 113.977 264.969 113.977C263.875 113.977 263.328 113.374 263.328 112.167V108.575H262.285V107.52H263.328V105.979H264.752ZM270.805 113.239C270.387 113.731 269.793 113.977 269.023 113.977C268.336 113.977 267.814 113.776 267.459 113.374C267.107 112.971 266.932 112.389 266.932 111.627V107.52H268.355V111.61C268.355 112.415 268.689 112.817 269.357 112.817C270.049 112.817 270.516 112.569 270.758 112.073V107.52H272.182V113.86H270.84L270.805 113.239ZM277.186 112.137C277.186 111.883 277.08 111.69 276.869 111.557C276.662 111.424 276.316 111.307 275.832 111.206C275.348 111.104 274.943 110.975 274.619 110.819C273.908 110.475 273.553 109.977 273.553 109.325C273.553 108.778 273.783 108.321 274.244 107.954C274.705 107.586 275.291 107.403 276.002 107.403C276.76 107.403 277.371 107.59 277.836 107.965C278.305 108.34 278.539 108.827 278.539 109.424H277.115C277.115 109.151 277.014 108.924 276.811 108.745C276.607 108.561 276.338 108.469 276.002 108.469C275.689 108.469 275.434 108.542 275.234 108.686C275.039 108.831 274.941 109.024 274.941 109.266C274.941 109.485 275.033 109.655 275.217 109.776C275.4 109.897 275.771 110.02 276.33 110.145C276.889 110.266 277.326 110.413 277.643 110.584C277.963 110.752 278.199 110.956 278.352 111.194C278.508 111.432 278.586 111.721 278.586 112.061C278.586 112.631 278.35 113.094 277.877 113.45C277.404 113.801 276.785 113.977 276.02 113.977C275.5 113.977 275.037 113.883 274.631 113.696C274.225 113.508 273.908 113.25 273.682 112.922C273.455 112.594 273.342 112.241 273.342 111.862H274.725C274.744 112.198 274.871 112.458 275.105 112.641C275.34 112.821 275.65 112.911 276.037 112.911C276.412 112.911 276.697 112.84 276.893 112.7C277.088 112.555 277.186 112.368 277.186 112.137Z" fill="#ACACAC"/>
<path d="M167.646 20.7695H164.143V23.3945H168.238V24.5781H162.66V16.0469H168.197V17.2422H164.143V19.5977H167.646V20.7695ZM170.629 18.2383L170.67 18.9707C171.139 18.4043 171.754 18.1211 172.516 18.1211C173.836 18.1211 174.508 18.877 174.531 20.3887V24.5781H173.107V20.4707C173.107 20.0684 173.02 19.7715 172.844 19.5801C172.672 19.3848 172.389 19.2871 171.994 19.2871C171.42 19.2871 170.992 19.5469 170.711 20.0664V24.5781H169.287V18.2383H170.629ZM175.721 21.3555C175.721 20.3633 175.947 19.5762 176.4 18.9941C176.854 18.4121 177.467 18.1211 178.24 18.1211C178.947 18.1211 179.508 18.3691 179.922 18.8652L180.004 18.2383H181.27V27.0156H179.846V24.0391C179.432 24.4766 178.893 24.6953 178.229 24.6953C177.471 24.6953 176.863 24.4004 176.406 23.8105C175.949 23.2168 175.721 22.3984 175.721 21.3555ZM177.145 21.4785C177.145 22.127 177.271 22.6367 177.525 23.0078C177.783 23.375 178.139 23.5586 178.592 23.5586C179.154 23.5586 179.572 23.3184 179.846 22.8379V19.9551C179.572 19.4941 179.158 19.2637 178.604 19.2637C178.15 19.2637 177.793 19.4453 177.531 19.8086C177.273 20.1719 177.145 20.7285 177.145 21.4785ZM186.648 23.957C186.23 24.4492 185.637 24.6953 184.867 24.6953C184.18 24.6953 183.658 24.4941 183.303 24.0918C182.951 23.6895 182.775 23.1074 182.775 22.3457V18.2383H184.199V22.3281C184.199 23.1328 184.533 23.5352 185.201 23.5352C185.893 23.5352 186.359 23.2871 186.602 22.791V18.2383H188.025V24.5781H186.684L186.648 23.957ZM190.99 24.5781H189.566V18.2383H190.99V24.5781ZM189.479 16.5918C189.479 16.373 189.547 16.1914 189.684 16.0469C189.824 15.9023 190.023 15.8301 190.281 15.8301C190.539 15.8301 190.738 15.9023 190.879 16.0469C191.02 16.1914 191.09 16.373 191.09 16.5918C191.09 16.8066 191.02 16.9863 190.879 17.1309C190.738 17.2715 190.539 17.3418 190.281 17.3418C190.023 17.3418 189.824 17.2715 189.684 17.1309C189.547 16.9863 189.479 16.8066 189.479 16.5918ZM195.865 19.5391C195.678 19.5078 195.484 19.4922 195.285 19.4922C194.633 19.4922 194.193 19.7422 193.967 20.2422V24.5781H192.543V18.2383H193.902L193.938 18.9473C194.281 18.3965 194.758 18.1211 195.367 18.1211C195.57 18.1211 195.738 18.1484 195.871 18.2031L195.865 19.5391ZM199.439 24.6953C198.537 24.6953 197.805 24.4121 197.242 23.8457C196.684 23.2754 196.404 22.5176 196.404 21.5723V21.3965C196.404 20.7637 196.525 20.1992 196.768 19.7031C197.014 19.2031 197.357 18.8145 197.799 18.5371C198.24 18.2598 198.732 18.1211 199.275 18.1211C200.139 18.1211 200.805 18.3965 201.273 18.9473C201.746 19.498 201.982 20.2773 201.982 21.2852V21.8594H197.84C197.883 22.3828 198.057 22.7969 198.361 23.1016C198.67 23.4062 199.057 23.5586 199.521 23.5586C200.174 23.5586 200.705 23.2949 201.115 22.7676L201.883 23.5C201.629 23.8789 201.289 24.1738 200.863 24.3848C200.441 24.5918 199.967 24.6953 199.439 24.6953ZM199.27 19.2637C198.879 19.2637 198.562 19.4004 198.32 19.6738C198.082 19.9473 197.93 20.3281 197.863 20.8164H200.576V20.7109C200.545 20.2344 200.418 19.875 200.195 19.6328C199.973 19.3867 199.664 19.2637 199.27 19.2637ZM207.783 24.5781H206.307V16.0469H207.783V24.5781ZM210.789 18.2383L210.83 18.9707C211.299 18.4043 211.914 18.1211 212.676 18.1211C213.996 18.1211 214.668 18.877 214.691 20.3887V24.5781H213.268V20.4707C213.268 20.0684 213.18 19.7715 213.004 19.5801C212.832 19.3848 212.549 19.2871 212.154 19.2871C211.58 19.2871 211.152 19.5469 210.871 20.0664V24.5781H209.447V18.2383H210.789ZM218.383 22.7734L219.725 18.2383H221.195L218.998 24.5781H217.762L215.547 18.2383H217.023L218.383 22.7734ZM221.729 21.3496C221.729 20.7285 221.852 20.1699 222.098 19.6738C222.344 19.1738 222.689 18.791 223.135 18.5254C223.58 18.2559 224.092 18.1211 224.67 18.1211C225.525 18.1211 226.219 18.3965 226.75 18.9473C227.285 19.498 227.574 20.2285 227.617 21.1387L227.623 21.4727C227.623 22.0977 227.502 22.6562 227.26 23.1484C227.021 23.6406 226.678 24.0215 226.229 24.291C225.783 24.5605 225.268 24.6953 224.682 24.6953C223.787 24.6953 223.07 24.3984 222.531 23.8047C221.996 23.207 221.729 22.4121 221.729 21.4199V21.3496ZM223.152 21.4727C223.152 22.125 223.287 22.6367 223.557 23.0078C223.826 23.375 224.201 23.5586 224.682 23.5586C225.162 23.5586 225.535 23.3711 225.801 22.9961C226.07 22.6211 226.205 22.0723 226.205 21.3496C226.205 20.709 226.066 20.2012 225.789 19.8262C225.516 19.4512 225.143 19.2637 224.67 19.2637C224.205 19.2637 223.836 19.4492 223.562 19.8203C223.289 20.1875 223.152 20.7383 223.152 21.4727ZM230.342 24.5781H228.918V18.2383H230.342V24.5781ZM228.83 16.5918C228.83 16.373 228.898 16.1914 229.035 16.0469C229.176 15.9023 229.375 15.8301 229.633 15.8301C229.891 15.8301 230.09 15.9023 230.23 16.0469C230.371 16.1914 230.441 16.373 230.441 16.5918C230.441 16.8066 230.371 16.9863 230.23 17.1309C230.09 17.2715 229.891 17.3418 229.633 17.3418C229.375 17.3418 229.176 17.2715 229.035 17.1309C228.898 16.9863 228.83 16.8066 228.83 16.5918ZM234.502 23.5586C234.857 23.5586 235.152 23.4551 235.387 23.248C235.621 23.041 235.746 22.7852 235.762 22.4805H237.104C237.088 22.875 236.965 23.2441 236.734 23.5879C236.504 23.9277 236.191 24.1973 235.797 24.3965C235.402 24.5957 234.977 24.6953 234.52 24.6953C233.633 24.6953 232.93 24.4082 232.41 23.834C231.891 23.2598 231.631 22.4668 231.631 21.4551V21.3086C231.631 20.3438 231.889 19.5723 232.404 18.9941C232.92 18.4121 233.623 18.1211 234.514 18.1211C235.268 18.1211 235.881 18.3418 236.354 18.7832C236.83 19.2207 237.08 19.7969 237.104 20.5117H235.762C235.746 20.1484 235.621 19.8496 235.387 19.6152C235.156 19.3809 234.861 19.2637 234.502 19.2637C234.041 19.2637 233.686 19.4316 233.436 19.7676C233.186 20.0996 233.059 20.6055 233.055 21.2852V21.5137C233.055 22.2012 233.178 22.7148 233.424 23.0547C233.674 23.3906 234.033 23.5586 234.502 23.5586ZM240.971 24.6953C240.068 24.6953 239.336 24.4121 238.773 23.8457C238.215 23.2754 237.936 22.5176 237.936 21.5723V21.3965C237.936 20.7637 238.057 20.1992 238.299 19.7031C238.545 19.2031 238.889 18.8145 239.33 18.5371C239.771 18.2598 240.264 18.1211 240.807 18.1211C241.67 18.1211 242.336 18.3965 242.805 18.9473C243.277 19.498 243.514 20.2773 243.514 21.2852V21.8594H239.371C239.414 22.3828 239.588 22.7969 239.893 23.1016C240.201 23.4062 240.588 23.5586 241.053 23.5586C241.705 23.5586 242.236 23.2949 242.646 22.7676L243.414 23.5C243.16 23.8789 242.82 24.1738 242.395 24.3848C241.973 24.5918 241.498 24.6953 240.971 24.6953ZM240.801 19.2637C240.41 19.2637 240.094 19.4004 239.852 19.6738C239.613 19.9473 239.461 20.3281 239.395 20.8164H242.107V20.7109C242.076 20.2344 241.949 19.875 241.727 19.6328C241.504 19.3867 241.195 19.2637 240.801 19.2637ZM252.666 20.9629H249.232V24.5781H247.75V16.0469H253.17V17.2422H249.232V19.7793H252.666V20.9629ZM255.725 24.5781H254.301V18.2383H255.725V24.5781ZM254.213 16.5918C254.213 16.373 254.281 16.1914 254.418 16.0469C254.559 15.9023 254.758 15.8301 255.016 15.8301C255.273 15.8301 255.473 15.9023 255.613 16.0469C255.754 16.1914 255.824 16.373 255.824 16.5918C255.824 16.8066 255.754 16.9863 255.613 17.1309C255.473 17.2715 255.273 17.3418 255.016 17.3418C254.758 17.3418 254.559 17.2715 254.418 17.1309C254.281 16.9863 254.213 16.8066 254.213 16.5918ZM258.602 18.2383L258.643 18.9707C259.111 18.4043 259.727 18.1211 260.488 18.1211C261.809 18.1211 262.48 18.877 262.504 20.3887V24.5781H261.08V20.4707C261.08 20.0684 260.992 19.7715 260.816 19.5801C260.645 19.3848 260.361 19.2871 259.967 19.2871C259.393 19.2871 258.965 19.5469 258.684 20.0664V24.5781H257.26V18.2383H258.602ZM267.748 24.5781C267.686 24.457 267.631 24.2598 267.584 23.9863C267.131 24.459 266.576 24.6953 265.92 24.6953C265.283 24.6953 264.764 24.5137 264.361 24.1504C263.959 23.7871 263.758 23.3379 263.758 22.8027C263.758 22.127 264.008 21.6094 264.508 21.25C265.012 20.8867 265.73 20.7051 266.664 20.7051H267.537V20.2891C267.537 19.9609 267.445 19.6992 267.262 19.5039C267.078 19.3047 266.799 19.2051 266.424 19.2051C266.1 19.2051 265.834 19.2871 265.627 19.4512C265.42 19.6113 265.316 19.8164 265.316 20.0664H263.893C263.893 19.7188 264.008 19.3945 264.238 19.0938C264.469 18.7891 264.781 18.5508 265.176 18.3789C265.574 18.207 266.018 18.1211 266.506 18.1211C267.248 18.1211 267.84 18.3086 268.281 18.6836C268.723 19.0547 268.949 19.5781 268.961 20.2539V23.1133C268.961 23.6836 269.041 24.1387 269.201 24.4785V24.5781H267.748ZM266.184 23.5527C266.465 23.5527 266.729 23.4844 266.975 23.3477C267.225 23.2109 267.412 23.0273 267.537 22.7969V21.6016H266.77C266.242 21.6016 265.846 21.6934 265.58 21.877C265.314 22.0605 265.182 22.3203 265.182 22.6562C265.182 22.9297 265.271 23.1484 265.451 23.3125C265.635 23.4727 265.879 23.5527 266.184 23.5527ZM271.773 18.2383L271.814 18.9707C272.283 18.4043 272.898 18.1211 273.66 18.1211C274.98 18.1211 275.652 18.877 275.676 20.3887V24.5781H274.252V20.4707C274.252 20.0684 274.164 19.7715 273.988 19.5801C273.816 19.3848 273.533 19.2871 273.139 19.2871C272.564 19.2871 272.137 19.5469 271.855 20.0664V24.5781H270.432V18.2383H271.773ZM279.736 23.5586C280.092 23.5586 280.387 23.4551 280.621 23.248C280.855 23.041 280.98 22.7852 280.996 22.4805H282.338C282.322 22.875 282.199 23.2441 281.969 23.5879C281.738 23.9277 281.426 24.1973 281.031 24.3965C280.637 24.5957 280.211 24.6953 279.754 24.6953C278.867 24.6953 278.164 24.4082 277.645 23.834C277.125 23.2598 276.865 22.4668 276.865 21.4551V21.3086C276.865 20.3438 277.123 19.5723 277.639 18.9941C278.154 18.4121 278.857 18.1211 279.748 18.1211C280.502 18.1211 281.115 18.3418 281.588 18.7832C282.064 19.2207 282.314 19.7969 282.338 20.5117H280.996C280.98 20.1484 280.855 19.8496 280.621 19.6152C280.391 19.3809 280.096 19.2637 279.736 19.2637C279.275 19.2637 278.92 19.4316 278.67 19.7676C278.42 20.0996 278.293 20.6055 278.289 21.2852V21.5137C278.289 22.2012 278.412 22.7148 278.658 23.0547C278.908 23.3906 279.268 23.5586 279.736 23.5586ZM284.928 24.5781H283.504V18.2383H284.928V24.5781ZM283.416 16.5918C283.416 16.373 283.484 16.1914 283.621 16.0469C283.762 15.9023 283.961 15.8301 284.219 15.8301C284.477 15.8301 284.676 15.9023 284.816 16.0469C284.957 16.1914 285.027 16.373 285.027 16.5918C285.027 16.8066 284.957 16.9863 284.816 17.1309C284.676 17.2715 284.477 17.3418 284.219 17.3418C283.961 17.3418 283.762 17.2715 283.621 17.1309C283.484 16.9863 283.416 16.8066 283.416 16.5918ZM287.805 18.2383L287.846 18.9707C288.314 18.4043 288.93 18.1211 289.691 18.1211C291.012 18.1211 291.684 18.877 291.707 20.3887V24.5781H290.283V20.4707C290.283 20.0684 290.195 19.7715 290.02 19.5801C289.848 19.3848 289.564 19.2871 289.17 19.2871C288.596 19.2871 288.168 19.5469 287.887 20.0664V24.5781H286.463V18.2383H287.805ZM292.914 21.3613C292.914 20.377 293.145 19.5918 293.605 19.0059C294.07 18.416 294.686 18.1211 295.451 18.1211C296.174 18.1211 296.742 18.373 297.156 18.877L297.221 18.2383H298.504V24.3848C298.504 25.2168 298.244 25.873 297.725 26.3535C297.209 26.834 296.512 27.0742 295.633 27.0742C295.168 27.0742 294.713 26.9766 294.268 26.7812C293.826 26.5898 293.49 26.3379 293.26 26.0254L293.934 25.1699C294.371 25.6895 294.91 25.9492 295.551 25.9492C296.023 25.9492 296.396 25.8203 296.67 25.5625C296.943 25.3086 297.08 24.9336 297.08 24.4375V24.0098C296.67 24.4668 296.123 24.6953 295.439 24.6953C294.697 24.6953 294.09 24.4004 293.617 23.8105C293.148 23.2207 292.914 22.4043 292.914 21.3613ZM294.332 21.4844C294.332 22.1211 294.461 22.623 294.719 22.9902C294.98 23.3535 295.342 23.5352 295.803 23.5352C296.377 23.5352 296.803 23.2891 297.08 22.7969V20.0078C296.811 19.5273 296.389 19.2871 295.814 19.2871C295.346 19.2871 294.98 19.4727 294.719 19.8438C294.461 20.2148 294.332 20.7617 294.332 21.4844Z" fill="white"/>
<path d="M332.188 419.011H330.535V422.298H329.053V413.767H332.053C333.037 413.767 333.797 413.987 334.332 414.429C334.867 414.87 335.135 415.509 335.135 416.345C335.135 416.915 334.996 417.394 334.719 417.78C334.445 418.163 334.062 418.458 333.57 418.665L335.486 422.222V422.298H333.898L332.188 419.011ZM330.535 417.821H332.059C332.559 417.821 332.949 417.696 333.23 417.446C333.512 417.192 333.652 416.847 333.652 416.409C333.652 415.952 333.521 415.599 333.26 415.349C333.002 415.099 332.615 414.97 332.1 414.962H330.535V417.821ZM339.195 422.415C338.293 422.415 337.561 422.132 336.998 421.565C336.439 420.995 336.16 420.237 336.16 419.292V419.116C336.16 418.483 336.281 417.919 336.523 417.423C336.77 416.923 337.113 416.534 337.555 416.257C337.996 415.979 338.488 415.841 339.031 415.841C339.895 415.841 340.561 416.116 341.029 416.667C341.502 417.218 341.738 417.997 341.738 419.005V419.579H337.596C337.639 420.103 337.812 420.517 338.117 420.821C338.426 421.126 338.812 421.278 339.277 421.278C339.93 421.278 340.461 421.015 340.871 420.487L341.639 421.22C341.385 421.599 341.045 421.894 340.619 422.104C340.197 422.312 339.723 422.415 339.195 422.415ZM339.025 416.983C338.635 416.983 338.318 417.12 338.076 417.394C337.838 417.667 337.686 418.048 337.619 418.536H340.332V418.431C340.301 417.954 340.174 417.595 339.951 417.353C339.729 417.106 339.42 416.983 339.025 416.983ZM345.453 421.278C345.809 421.278 346.104 421.175 346.338 420.968C346.572 420.761 346.697 420.505 346.713 420.2H348.055C348.039 420.595 347.916 420.964 347.686 421.308C347.455 421.647 347.143 421.917 346.748 422.116C346.354 422.315 345.928 422.415 345.471 422.415C344.584 422.415 343.881 422.128 343.361 421.554C342.842 420.979 342.582 420.187 342.582 419.175V419.028C342.582 418.063 342.84 417.292 343.355 416.714C343.871 416.132 344.574 415.841 345.465 415.841C346.219 415.841 346.832 416.062 347.305 416.503C347.781 416.94 348.031 417.517 348.055 418.231H346.713C346.697 417.868 346.572 417.569 346.338 417.335C346.107 417.101 345.812 416.983 345.453 416.983C344.992 416.983 344.637 417.151 344.387 417.487C344.137 417.819 344.01 418.325 344.006 419.005V419.233C344.006 419.921 344.129 420.435 344.375 420.774C344.625 421.11 344.984 421.278 345.453 421.278ZM351.922 422.415C351.02 422.415 350.287 422.132 349.725 421.565C349.166 420.995 348.887 420.237 348.887 419.292V419.116C348.887 418.483 349.008 417.919 349.25 417.423C349.496 416.923 349.84 416.534 350.281 416.257C350.723 415.979 351.215 415.841 351.758 415.841C352.621 415.841 353.287 416.116 353.756 416.667C354.229 417.218 354.465 417.997 354.465 419.005V419.579H350.322C350.365 420.103 350.539 420.517 350.844 420.821C351.152 421.126 351.539 421.278 352.004 421.278C352.656 421.278 353.188 421.015 353.598 420.487L354.365 421.22C354.111 421.599 353.771 421.894 353.346 422.104C352.924 422.312 352.449 422.415 351.922 422.415ZM351.752 416.983C351.361 416.983 351.045 417.12 350.803 417.394C350.564 417.667 350.412 418.048 350.346 418.536H353.059V418.431C353.027 417.954 352.9 417.595 352.678 417.353C352.455 417.106 352.146 416.983 351.752 416.983ZM357.09 422.298H355.666V415.958H357.09V422.298ZM355.578 414.312C355.578 414.093 355.646 413.911 355.783 413.767C355.924 413.622 356.123 413.55 356.381 413.55C356.639 413.55 356.838 413.622 356.979 413.767C357.119 413.911 357.189 414.093 357.189 414.312C357.189 414.526 357.119 414.706 356.979 414.851C356.838 414.991 356.639 415.062 356.381 415.062C356.123 415.062 355.924 414.991 355.783 414.851C355.646 414.706 355.578 414.526 355.578 414.312ZM364.197 419.192C364.197 420.173 363.975 420.956 363.529 421.542C363.084 422.124 362.486 422.415 361.736 422.415C361.041 422.415 360.484 422.187 360.066 421.729V424.735H358.643V415.958H359.955L360.014 416.603C360.432 416.095 361 415.841 361.719 415.841C362.492 415.841 363.098 416.13 363.535 416.708C363.977 417.282 364.197 418.081 364.197 419.104V419.192ZM362.779 419.069C362.779 418.437 362.652 417.935 362.398 417.563C362.148 417.192 361.789 417.007 361.32 417.007C360.738 417.007 360.32 417.247 360.066 417.728V420.54C360.324 421.032 360.746 421.278 361.332 421.278C361.785 421.278 362.139 421.097 362.393 420.733C362.65 420.366 362.779 419.812 362.779 419.069ZM367.191 414.417V415.958H368.311V417.013H367.191V420.552C367.191 420.794 367.238 420.97 367.332 421.079C367.43 421.185 367.602 421.237 367.848 421.237C368.012 421.237 368.178 421.218 368.346 421.179V422.28C368.021 422.37 367.709 422.415 367.408 422.415C366.314 422.415 365.768 421.812 365.768 420.604V417.013H364.725V415.958H365.768V414.417H367.191ZM369.805 423.03H368.686L372.043 413.767H373.162L369.805 423.03ZM375.77 419.128V422.298H374.287V413.767H377.551C378.504 413.767 379.26 414.015 379.818 414.511C380.381 415.007 380.662 415.663 380.662 416.479C380.662 417.315 380.387 417.966 379.836 418.431C379.289 418.896 378.521 419.128 377.533 419.128H375.77ZM375.77 417.938H377.551C378.078 417.938 378.48 417.815 378.758 417.569C379.035 417.319 379.174 416.96 379.174 416.491C379.174 416.03 379.033 415.663 378.752 415.39C378.471 415.112 378.084 414.97 377.592 414.962H375.77V417.938ZM385.145 417.259C384.957 417.228 384.764 417.212 384.564 417.212C383.912 417.212 383.473 417.462 383.246 417.962V422.298H381.822V415.958H383.182L383.217 416.667C383.561 416.116 384.037 415.841 384.646 415.841C384.85 415.841 385.018 415.868 385.15 415.923L385.145 417.259ZM385.566 419.069C385.566 418.448 385.689 417.89 385.936 417.394C386.182 416.894 386.527 416.511 386.973 416.245C387.418 415.976 387.93 415.841 388.508 415.841C389.363 415.841 390.057 416.116 390.588 416.667C391.123 417.218 391.412 417.948 391.455 418.858L391.461 419.192C391.461 419.817 391.34 420.376 391.098 420.868C390.859 421.36 390.516 421.741 390.066 422.011C389.621 422.28 389.105 422.415 388.52 422.415C387.625 422.415 386.908 422.118 386.369 421.524C385.834 420.927 385.566 420.132 385.566 419.14V419.069ZM386.99 419.192C386.99 419.845 387.125 420.356 387.395 420.728C387.664 421.095 388.039 421.278 388.52 421.278C389 421.278 389.373 421.091 389.639 420.716C389.908 420.341 390.043 419.792 390.043 419.069C390.043 418.429 389.904 417.921 389.627 417.546C389.354 417.171 388.98 416.983 388.508 416.983C388.043 416.983 387.674 417.169 387.4 417.54C387.127 417.907 386.99 418.458 386.99 419.192ZM395.27 421.278C395.625 421.278 395.92 421.175 396.154 420.968C396.389 420.761 396.514 420.505 396.529 420.2H397.871C397.855 420.595 397.732 420.964 397.502 421.308C397.271 421.647 396.959 421.917 396.564 422.116C396.17 422.315 395.744 422.415 395.287 422.415C394.4 422.415 393.697 422.128 393.178 421.554C392.658 420.979 392.398 420.187 392.398 419.175V419.028C392.398 418.063 392.656 417.292 393.172 416.714C393.688 416.132 394.391 415.841 395.281 415.841C396.035 415.841 396.648 416.062 397.121 416.503C397.598 416.94 397.848 417.517 397.871 418.231H396.529C396.514 417.868 396.389 417.569 396.154 417.335C395.924 417.101 395.629 416.983 395.27 416.983C394.809 416.983 394.453 417.151 394.203 417.487C393.953 417.819 393.826 418.325 393.822 419.005V419.233C393.822 419.921 393.945 420.435 394.191 420.774C394.441 421.11 394.801 421.278 395.27 421.278ZM401.738 422.415C400.836 422.415 400.104 422.132 399.541 421.565C398.982 420.995 398.703 420.237 398.703 419.292V419.116C398.703 418.483 398.824 417.919 399.066 417.423C399.312 416.923 399.656 416.534 400.098 416.257C400.539 415.979 401.031 415.841 401.574 415.841C402.438 415.841 403.104 416.116 403.572 416.667C404.045 417.218 404.281 417.997 404.281 419.005V419.579H400.139C400.182 420.103 400.355 420.517 400.66 420.821C400.969 421.126 401.355 421.278 401.82 421.278C402.473 421.278 403.004 421.015 403.414 420.487L404.182 421.22C403.928 421.599 403.588 421.894 403.162 422.104C402.74 422.312 402.266 422.415 401.738 422.415ZM401.568 416.983C401.178 416.983 400.861 417.12 400.619 417.394C400.381 417.667 400.229 418.048 400.162 418.536H402.875V418.431C402.844 417.954 402.717 417.595 402.494 417.353C402.271 417.106 401.963 416.983 401.568 416.983ZM408.945 420.575C408.945 420.321 408.84 420.128 408.629 419.995C408.422 419.862 408.076 419.745 407.592 419.644C407.107 419.542 406.703 419.413 406.379 419.257C405.668 418.913 405.312 418.415 405.312 417.763C405.312 417.216 405.543 416.759 406.004 416.392C406.465 416.024 407.051 415.841 407.762 415.841C408.52 415.841 409.131 416.028 409.596 416.403C410.064 416.778 410.299 417.265 410.299 417.862H408.875C408.875 417.589 408.773 417.362 408.57 417.183C408.367 416.999 408.098 416.907 407.762 416.907C407.449 416.907 407.193 416.979 406.994 417.124C406.799 417.269 406.701 417.462 406.701 417.704C406.701 417.923 406.793 418.093 406.977 418.214C407.16 418.335 407.531 418.458 408.09 418.583C408.648 418.704 409.086 418.851 409.402 419.022C409.723 419.19 409.959 419.394 410.111 419.632C410.268 419.87 410.346 420.159 410.346 420.499C410.346 421.069 410.109 421.532 409.637 421.888C409.164 422.239 408.545 422.415 407.779 422.415C407.26 422.415 406.797 422.321 406.391 422.134C405.984 421.946 405.668 421.688 405.441 421.36C405.215 421.032 405.102 420.679 405.102 420.3H406.484C406.504 420.636 406.631 420.896 406.865 421.079C407.1 421.259 407.41 421.349 407.797 421.349C408.172 421.349 408.457 421.278 408.652 421.138C408.848 420.993 408.945 420.806 408.945 420.575ZM415.145 420.575C415.145 420.321 415.039 420.128 414.828 419.995C414.621 419.862 414.275 419.745 413.791 419.644C413.307 419.542 412.902 419.413 412.578 419.257C411.867 418.913 411.512 418.415 411.512 417.763C411.512 417.216 411.742 416.759 412.203 416.392C412.664 416.024 413.25 415.841 413.961 415.841C414.719 415.841 415.33 416.028 415.795 416.403C416.264 416.778 416.498 417.265 416.498 417.862H415.074C415.074 417.589 414.973 417.362 414.77 417.183C414.566 416.999 414.297 416.907 413.961 416.907C413.648 416.907 413.393 416.979 413.193 417.124C412.998 417.269 412.9 417.462 412.9 417.704C412.9 417.923 412.992 418.093 413.176 418.214C413.359 418.335 413.73 418.458 414.289 418.583C414.848 418.704 415.285 418.851 415.602 419.022C415.922 419.19 416.158 419.394 416.311 419.632C416.467 419.87 416.545 420.159 416.545 420.499C416.545 421.069 416.309 421.532 415.836 421.888C415.363 422.239 414.744 422.415 413.979 422.415C413.459 422.415 412.996 422.321 412.59 422.134C412.184 421.946 411.867 421.688 411.641 421.36C411.414 421.032 411.301 420.679 411.301 420.3H412.684C412.703 420.636 412.83 420.896 413.064 421.079C413.299 421.259 413.609 421.349 413.996 421.349C414.371 421.349 414.656 421.278 414.852 421.138C415.047 420.993 415.145 420.806 415.145 420.575ZM419.305 422.298H417.881V415.958H419.305V422.298ZM417.793 414.312C417.793 414.093 417.861 413.911 417.998 413.767C418.139 413.622 418.338 413.55 418.596 413.55C418.854 413.55 419.053 413.622 419.193 413.767C419.334 413.911 419.404 414.093 419.404 414.312C419.404 414.526 419.334 414.706 419.193 414.851C419.053 414.991 418.854 415.062 418.596 415.062C418.338 415.062 418.139 414.991 417.998 414.851C417.861 414.706 417.793 414.526 417.793 414.312ZM422.182 415.958L422.223 416.69C422.691 416.124 423.307 415.841 424.068 415.841C425.389 415.841 426.061 416.597 426.084 418.108V422.298H424.66V418.19C424.66 417.788 424.572 417.491 424.396 417.3C424.225 417.104 423.941 417.007 423.547 417.007C422.973 417.007 422.545 417.267 422.264 417.786V422.298H420.84V415.958H422.182ZM427.291 419.081C427.291 418.097 427.521 417.312 427.982 416.726C428.447 416.136 429.062 415.841 429.828 415.841C430.551 415.841 431.119 416.093 431.533 416.597L431.598 415.958H432.881V422.104C432.881 422.937 432.621 423.593 432.102 424.073C431.586 424.554 430.889 424.794 430.01 424.794C429.545 424.794 429.09 424.696 428.645 424.501C428.203 424.31 427.867 424.058 427.637 423.745L428.311 422.89C428.748 423.409 429.287 423.669 429.928 423.669C430.4 423.669 430.773 423.54 431.047 423.282C431.32 423.028 431.457 422.653 431.457 422.157V421.729C431.047 422.187 430.5 422.415 429.816 422.415C429.074 422.415 428.467 422.12 427.994 421.53C427.525 420.94 427.291 420.124 427.291 419.081ZM428.709 419.204C428.709 419.841 428.838 420.343 429.096 420.71C429.357 421.073 429.719 421.255 430.18 421.255C430.754 421.255 431.18 421.009 431.457 420.517V417.728C431.188 417.247 430.766 417.007 430.191 417.007C429.723 417.007 429.357 417.192 429.096 417.563C428.838 417.935 428.709 418.481 428.709 419.204ZM368.932 434.101C368.932 433.726 368.799 433.437 368.533 433.233C368.271 433.03 367.797 432.825 367.109 432.618C366.422 432.411 365.875 432.181 365.469 431.927C364.691 431.438 364.303 430.802 364.303 430.017C364.303 429.329 364.582 428.763 365.141 428.317C365.703 427.872 366.432 427.649 367.326 427.649C367.92 427.649 368.449 427.759 368.914 427.978C369.379 428.196 369.744 428.509 370.01 428.915C370.275 429.317 370.408 429.765 370.408 430.257H368.932C368.932 429.812 368.791 429.464 368.51 429.214C368.232 428.96 367.834 428.833 367.314 428.833C366.83 428.833 366.453 428.937 366.184 429.144C365.918 429.351 365.785 429.64 365.785 430.011C365.785 430.323 365.93 430.585 366.219 430.796C366.508 431.003 366.984 431.206 367.648 431.405C368.312 431.601 368.846 431.825 369.248 432.079C369.65 432.329 369.945 432.618 370.133 432.946C370.32 433.271 370.414 433.651 370.414 434.089C370.414 434.8 370.141 435.366 369.594 435.788C369.051 436.206 368.312 436.415 367.379 436.415C366.762 436.415 366.193 436.302 365.674 436.075C365.158 435.845 364.756 435.528 364.467 435.126C364.182 434.724 364.039 434.255 364.039 433.72H365.521C365.521 434.204 365.682 434.579 366.002 434.845C366.322 435.11 366.781 435.243 367.379 435.243C367.895 435.243 368.281 435.14 368.539 434.933C368.801 434.722 368.932 434.444 368.932 434.101ZM373.361 428.417V429.958H374.48V431.013H373.361V434.552C373.361 434.794 373.408 434.97 373.502 435.079C373.6 435.185 373.771 435.237 374.018 435.237C374.182 435.237 374.348 435.218 374.516 435.179V436.28C374.191 436.37 373.879 436.415 373.578 436.415C372.484 436.415 371.938 435.812 371.938 434.604V431.013H370.895V429.958H371.938V428.417H373.361ZM379.361 436.298C379.299 436.177 379.244 435.979 379.197 435.706C378.744 436.179 378.189 436.415 377.533 436.415C376.896 436.415 376.377 436.233 375.975 435.87C375.572 435.507 375.371 435.058 375.371 434.522C375.371 433.847 375.621 433.329 376.121 432.97C376.625 432.606 377.344 432.425 378.277 432.425H379.15V432.009C379.15 431.681 379.059 431.419 378.875 431.224C378.691 431.024 378.412 430.925 378.037 430.925C377.713 430.925 377.447 431.007 377.24 431.171C377.033 431.331 376.93 431.536 376.93 431.786H375.506C375.506 431.438 375.621 431.114 375.852 430.813C376.082 430.509 376.395 430.271 376.789 430.099C377.188 429.927 377.631 429.841 378.119 429.841C378.861 429.841 379.453 430.028 379.895 430.403C380.336 430.774 380.562 431.298 380.574 431.974V434.833C380.574 435.403 380.654 435.858 380.814 436.198V436.298H379.361ZM377.797 435.272C378.078 435.272 378.342 435.204 378.588 435.067C378.838 434.931 379.025 434.747 379.15 434.517V433.321H378.383C377.855 433.321 377.459 433.413 377.193 433.597C376.928 433.78 376.795 434.04 376.795 434.376C376.795 434.649 376.885 434.868 377.064 435.032C377.248 435.192 377.492 435.272 377.797 435.272ZM383.85 428.417V429.958H384.969V431.013H383.85V434.552C383.85 434.794 383.896 434.97 383.99 435.079C384.088 435.185 384.26 435.237 384.506 435.237C384.67 435.237 384.836 435.218 385.004 435.179V436.28C384.68 436.37 384.367 436.415 384.066 436.415C382.973 436.415 382.426 435.812 382.426 434.604V431.013H381.383V429.958H382.426V428.417H383.85ZM389.902 435.677C389.484 436.169 388.891 436.415 388.121 436.415C387.434 436.415 386.912 436.214 386.557 435.812C386.205 435.409 386.029 434.827 386.029 434.065V429.958H387.453V434.048C387.453 434.853 387.787 435.255 388.455 435.255C389.146 435.255 389.613 435.007 389.855 434.511V429.958H391.279V436.298H389.938L389.902 435.677ZM396.283 434.575C396.283 434.321 396.178 434.128 395.967 433.995C395.76 433.862 395.414 433.745 394.93 433.644C394.445 433.542 394.041 433.413 393.717 433.257C393.006 432.913 392.65 432.415 392.65 431.763C392.65 431.216 392.881 430.759 393.342 430.392C393.803 430.024 394.389 429.841 395.1 429.841C395.857 429.841 396.469 430.028 396.934 430.403C397.402 430.778 397.637 431.265 397.637 431.862H396.213C396.213 431.589 396.111 431.362 395.908 431.183C395.705 430.999 395.436 430.907 395.1 430.907C394.787 430.907 394.531 430.979 394.332 431.124C394.137 431.269 394.039 431.462 394.039 431.704C394.039 431.923 394.131 432.093 394.314 432.214C394.498 432.335 394.869 432.458 395.428 432.583C395.986 432.704 396.424 432.851 396.74 433.022C397.061 433.19 397.297 433.394 397.449 433.632C397.605 433.87 397.684 434.159 397.684 434.499C397.684 435.069 397.447 435.532 396.975 435.888C396.502 436.239 395.883 436.415 395.117 436.415C394.598 436.415 394.135 436.321 393.729 436.134C393.322 435.946 393.006 435.688 392.779 435.36C392.553 435.032 392.439 434.679 392.439 434.3H393.822C393.842 434.636 393.969 434.896 394.203 435.079C394.438 435.259 394.748 435.349 395.135 435.349C395.51 435.349 395.795 435.278 395.99 435.138C396.186 434.993 396.283 434.806 396.283 434.575Z" fill="#ACACAC"/>
<path d="M222.915 78.7852L230.395 89.1151L237.874 79.0309" stroke="#ACACAC" stroke-width="1.5"/>
<path d="M222.915 174.535L230.395 184.865L237.874 174.781" stroke="#ACACAC" stroke-width="1.5"/>
<path d="M222.915 265.138L230.395 275.468L237.874 265.383" stroke="#ACACAC" stroke-width="1.5"/>
<path d="M375.923 380.194L383.402 390.524L390.882 380.44" stroke="#ACACAC" stroke-width="1.5"/>
<path d="M90.9092 380.194L98.3888 390.524L105.868 380.44" stroke="#ACACAC" stroke-width="1.5"/>
</svg>
