<svg width="6" height="9" viewBox="0 0 6 9" fill="none" xmlns="http://www.w3.org/2000/svg">
<path d="M2.12583 4.87065C2.23162 4.96536 2.31957 5.04716 2.41059 5.12466C3.50904 6.06279 4.6077 7.00071 5.70656 7.93843C5.96057 8.15554 6.02576 8.42554 5.89107 8.67647C5.75638 8.92741 5.53127 9.0455 5.24897 8.98399C5.13089 8.95328 5.02174 8.89512 4.93039 8.81424C3.57731 7.66618 2.22793 6.51689 0.882234 5.36637C0.513214 5.05085 0.513214 4.68983 0.882234 4.37493C2.22014 3.22687 3.56091 2.08332 4.90455 0.944275C5.22191 0.674891 5.57248 0.693342 5.79943 0.972567C6.01346 1.2358 5.96672 1.5796 5.66473 1.83792C4.57612 2.77154 3.48526 3.70291 2.39214 4.63202C2.30604 4.70274 2.22854 4.77901 2.12583 4.87065Z" fill="white"/>
</svg>
