<svg width="12" height="12" viewBox="0 0 12 12" fill="none" xmlns="http://www.w3.org/2000/svg">
<path d="M2.77032 8.54362C2.4498 8.54362 2.15802 8.54362 1.8659 8.54362C0.842138 8.54024 0.15918 7.85707 0.15918 6.83755C0.15918 5.36101 0.15918 3.88491 0.15918 2.40927C0.15918 1.42356 0.853297 0.731934 1.84156 0.731934C4.23079 0.731934 6.62002 0.731934 9.00925 0.731934C10.0381 0.731934 10.7197 1.3955 10.7265 2.42651C10.7349 3.7844 10.7312 5.1423 10.7231 6.50019C10.7231 6.59856 10.6707 6.74121 10.5973 6.78144C10.5239 6.82166 10.3779 6.78583 10.2947 6.73377C8.61435 5.67876 6.48737 6.41534 5.8318 8.28604C5.7821 8.42801 5.7182 8.5399 5.54408 8.54903C5.49472 8.55173 5.44468 8.59703 5.40073 8.62982C4.27373 9.47424 3.14673 10.3193 2.01974 11.1651C1.97917 11.1955 1.94062 11.2442 1.89599 11.2506C1.80876 11.2631 1.68637 11.2864 1.63633 11.2412C1.57818 11.1884 1.56871 11.0681 1.56297 10.9755C1.55959 10.9268 1.6059 10.874 1.63059 10.8237C2.00554 10.0726 2.38116 9.32313 2.77032 8.54362ZM7.05301 4.62848C7.05163 4.71876 7.06809 4.80843 7.10147 4.89233C7.13484 4.97623 7.18446 5.05271 7.24748 5.11739C7.3105 5.18206 7.38568 5.23365 7.4687 5.26919C7.55171 5.30473 7.64093 5.32353 7.73124 5.3245C7.91347 5.32568 8.08878 5.25477 8.21894 5.12723C8.34909 4.9997 8.42354 4.82588 8.42603 4.64369C8.42696 4.46142 8.3562 4.28608 8.229 4.1555C8.10181 4.02492 7.92838 3.94955 7.74612 3.94565C7.56391 3.94519 7.38888 4.01666 7.25909 4.14453C7.1293 4.27239 7.05524 4.44632 7.05301 4.62848ZM2.45927 4.63626C2.45909 4.81838 2.53118 4.99313 2.65973 5.12216C2.78828 5.25119 2.96277 5.32396 3.14493 5.3245C3.3273 5.32266 3.50173 5.24962 3.63097 5.12097C3.76022 4.99232 3.83404 4.81824 3.83668 4.63592C3.83329 4.45367 3.75928 4.27986 3.63024 4.1511C3.5012 4.02234 3.32721 3.94868 3.14493 3.94565C2.96264 3.94707 2.7883 4.02045 2.65988 4.1498C2.53146 4.27915 2.45935 4.454 2.45927 4.63626ZM4.75495 4.6322C4.75423 4.81439 4.82565 4.98947 4.95362 5.11919C5.08159 5.2489 5.25569 5.32271 5.43792 5.3245C5.52816 5.32485 5.61759 5.30741 5.70109 5.27317C5.78458 5.23893 5.8605 5.18856 5.9245 5.12495C5.9885 5.06133 6.03933 4.98573 6.07407 4.90245C6.10881 4.81917 6.12678 4.72987 6.12696 4.63964C6.12805 4.45735 6.05693 4.28204 5.92915 4.15201C5.80138 4.02198 5.62732 3.94779 5.44501 3.94565C5.26272 3.94609 5.08797 4.01846 4.95875 4.14702C4.82953 4.27558 4.75629 4.44994 4.75495 4.6322Z" fill="#909090"/>
<path d="M6.13222 9.21648C6.1569 7.80822 7.29056 6.68729 8.67136 6.70554C10.0792 6.72413 11.2071 7.87278 11.1831 9.26245C11.1584 10.6579 10.0062 11.7818 8.6247 11.7575C7.23443 11.7315 6.10788 10.5832 6.13222 9.21648ZM8.42759 9.45716C8.42759 9.67959 8.42759 9.8814 8.42759 10.0829C8.42961 10.2718 8.51211 10.3749 8.6558 10.3749C8.7995 10.3749 8.88132 10.2735 8.88199 10.0835C8.88199 9.87768 8.88199 9.67181 8.88199 9.45716C9.12407 9.45716 9.34316 9.46054 9.56157 9.45716C9.71068 9.45412 9.80433 9.36183 9.79824 9.22932C9.79216 9.08802 9.70764 9.0167 9.57172 9.00588C9.49903 9.00013 9.42566 9.00351 9.35263 9.00318H8.88132C8.88132 8.75506 8.88335 8.53567 8.88132 8.31662C8.88132 8.18445 8.80423 8.10163 8.67846 8.08946C8.55268 8.07729 8.46072 8.1422 8.43638 8.27302C8.42825 8.3343 8.42553 8.39617 8.42826 8.45792C8.42826 8.63573 8.42826 8.8132 8.42826 9.00352C8.19159 9.00352 7.98569 9.00047 7.77843 9.00352C7.60938 9.00656 7.50457 9.10188 7.50795 9.24014C7.51235 9.36893 7.61716 9.45581 7.77843 9.4575C7.98535 9.4575 8.19193 9.45581 8.4286 9.45581L8.42759 9.45716Z" fill="#909090"/>
</svg>
