<svg width="12" height="12" viewBox="0 0 12 12" fill="none" xmlns="http://www.w3.org/2000/svg">
<g clip-path="url(#clip0_57_1864)">
<path d="M2.88354 7.4479C2.88354 6.51869 2.881 5.58897 2.88354 4.65976C2.8866 3.78636 3.41053 3.25699 4.2795 3.25545C6.14826 3.25306 8.01582 3.25306 9.8822 3.25545C10.7639 3.25545 11.2975 3.79097 11.2985 4.67103C11.2985 6.53866 11.2985 8.40613 11.2985 10.2734C11.2985 11.1371 10.7578 11.6767 9.89596 11.6777C8.02007 11.6777 6.14418 11.6777 4.26829 11.6777C3.41818 11.6777 2.88711 11.1438 2.88405 10.2878C2.88049 9.34063 2.88354 8.39452 2.88354 7.4479ZM7.07907 10.8156H9.85519C10.2981 10.8156 10.4372 10.6774 10.4372 10.2386C10.4372 8.38838 10.4372 6.53781 10.4372 4.6869C10.4372 4.26146 10.2945 4.11657 9.87354 4.11657C8.02313 4.11657 6.17238 4.11657 4.32129 4.11657C3.87738 4.11657 3.73977 4.25173 3.73977 4.69406C3.73977 6.54429 3.73977 8.39486 3.73977 10.2458C3.73977 10.6743 3.88044 10.8151 4.3004 10.8156C5.2273 10.8166 6.1542 10.8166 7.08111 10.8156H7.07907Z" fill="#909090"/>
<path d="M2.01235 8.25399V9.04907C1.17192 9.29891 0.315685 8.7035 0.309569 7.83521C0.295808 5.87286 0.299376 3.91051 0.309569 1.94765C0.309162 1.61381 0.440623 1.29343 0.675104 1.05684C0.909584 0.820241 1.22793 0.686754 1.56028 0.68567C3.53096 0.675089 5.50165 0.675089 7.47234 0.68567C8.16751 0.689254 8.6996 1.25241 8.71845 1.95226C8.72151 2.07923 8.71845 2.20824 8.71845 2.35466H7.85764C7.85764 2.25227 7.85764 2.16268 7.85764 2.07155C7.85254 1.6886 7.71289 1.54474 7.33575 1.54372C6.6054 1.54372 5.87506 1.54372 5.14421 1.54372C3.99747 1.54372 2.85073 1.54372 1.704 1.54372C1.31054 1.54372 1.16682 1.68809 1.16682 2.08332C1.16682 3.93458 1.16682 5.786 1.16682 7.63759C1.16682 8.11167 1.29168 8.23454 1.77484 8.24119C1.84874 8.24273 1.92367 8.25092 2.01235 8.25399Z" fill="#909090"/>
</g>
<defs>
<clipPath id="clip0_57_1864">
<rect width="11" height="11" fill="white" transform="translate(0.300049 0.678711)"/>
</clipPath>
</defs>
</svg>
