<svg width="12" height="11" viewBox="0 0 12 11" fill="none" xmlns="http://www.w3.org/2000/svg">
<path d="M9.23803 9.5028C9.23803 9.71934 9.07004 9.88776 8.85404 9.88776H1.89419C1.6782 9.88776 1.5102 9.71934 1.5102 9.5028V2.52533C1.5102 2.30879 1.6782 2.14036 1.89419 2.14036H7.07808V1.22607H1.89419C1.17421 1.22607 0.574219 1.82758 0.574219 2.54939V9.52686C0.574219 10.2487 1.17421 10.8502 1.89419 10.8502H8.85404C9.57403 10.8502 10.174 10.2487 10.174 9.52686V5.09977H9.23803V9.5028Z" fill="#ACACAC"/>
<path d="M9.47817 0.865383L9.43018 0.913503L10.7981 2.28494L10.8461 2.23682C11.2301 1.85185 11.2301 1.25035 10.8461 0.865383C10.4622 0.480419 9.86217 0.480419 9.47817 0.865383Z" fill="#ACACAC"/>
<path d="M4.60608 5.7497L3.98209 7.53016C3.95809 7.67452 4.07809 7.79482 4.19809 7.7467L5.95005 7.12114L10.342 2.71811L8.97399 1.34668L4.60608 5.7497Z" fill="#ACACAC"/>
</svg>
