<svg width="19" height="18" viewBox="0 0 19 18" fill="none" xmlns="http://www.w3.org/2000/svg">
<path d="M9.23848 0.147461C7.50284 0.147461 5.80617 0.66214 4.36303 1.62641C2.91989 2.59069 1.7951 3.96125 1.1309 5.56478C0.466693 7.16831 0.292907 8.93278 0.631515 10.6351C0.970123 12.3374 1.80592 13.901 3.0332 15.1283C4.26049 16.3556 5.82415 17.1914 7.52645 17.53C9.22875 17.8686 10.9932 17.6948 12.5968 17.0306C14.2003 16.3664 15.5708 15.2416 16.5351 13.7985C17.4994 12.3554 18.0141 10.6587 18.0141 8.92305C18.0141 6.59562 17.0895 4.36351 15.4438 2.71777C13.798 1.07203 11.5659 0.147461 9.23848 0.147461V0.147461ZM13.1699 7.26446L8.78215 11.6523C8.59738 11.8275 8.35229 11.9249 8.09766 11.9243C7.86211 11.8945 7.64459 11.7827 7.48337 11.6084L4.93844 9.10734C4.84823 9.01763 4.77664 8.91097 4.72779 8.7935C4.67894 8.67603 4.65379 8.55006 4.65379 8.42284C4.65379 8.29562 4.67894 8.16965 4.72779 8.05218C4.77664 7.93471 4.84823 7.82805 4.93844 7.73834C5.02679 7.64732 5.1325 7.57496 5.24933 7.52554C5.36615 7.47613 5.49171 7.45066 5.61855 7.45066C5.7454 7.45066 5.87095 7.47613 5.98778 7.52554C6.1046 7.57496 6.21032 7.64732 6.29866 7.73834L8.14153 9.58122L11.8273 5.89547C11.9156 5.80445 12.0213 5.73208 12.1382 5.68267C12.255 5.63325 12.3805 5.60779 12.5074 5.60779C12.6342 5.60779 12.7598 5.63325 12.8766 5.68267C12.9934 5.73208 13.0992 5.80445 13.1875 5.89547C13.2776 5.98574 13.3488 6.09312 13.3969 6.21131C13.4449 6.3295 13.4688 6.4561 13.4671 6.58366C13.4655 6.71123 13.4384 6.83717 13.3873 6.95409C13.3363 7.07101 13.2624 7.17654 13.1699 7.26446Z" fill="#A0C068"/>
</svg>
