<svg width="13" height="9" viewBox="0 0 13 9" fill="none" xmlns="http://www.w3.org/2000/svg">
<path d="M0.982422 0.758934C1.17587 0.73055 1.32275 0.690813 1.46962 0.690813C4.66814 0.687372 7.86649 0.687372 11.0647 0.690813C11.2126 0.690813 11.361 0.729002 11.557 0.755838C11.472 0.854406 11.428 0.910658 11.3768 0.962265C9.80266 2.54969 8.22796 4.13625 6.65275 5.72195C6.3677 6.00837 6.17528 6.00992 5.89432 5.72763C4.31912 4.14193 2.74425 2.55554 1.16973 0.968457C1.11804 0.913754 1.07147 0.858019 0.982422 0.758934Z" fill="#909090"/>
<path d="M1.00977 8.9328L4.55782 5.35181C4.83059 5.62945 5.11615 5.91948 5.40325 6.21106C5.96977 6.77873 6.58031 6.77873 7.14325 6.21106C7.42625 5.92619 7.70618 5.63926 7.97128 5.3709L11.4937 8.93434C11.3725 8.95396 11.2271 8.99679 11.0813 8.9973C7.87421 9.00075 4.66716 9.00075 1.46011 8.9973C1.31989 8.99369 1.18018 8.95705 1.00977 8.9328Z" fill="#909090"/>
<path d="M0.463742 8.3692C0.439177 8.23089 0.390557 8.08433 0.390557 7.93777C0.385439 5.87625 0.385439 3.81474 0.390557 1.75322C0.390557 1.60563 0.436621 1.45751 0.460162 1.3125L3.94936 4.84343L0.463742 8.3692Z" fill="#909090"/>
<path d="M12.0802 8.38164L8.58789 4.84761L12.0848 1.31152C12.1093 1.45654 12.1554 1.60465 12.1554 1.75224C12.1605 3.81376 12.1605 5.8751 12.1554 7.93627C12.1523 8.08335 12.1042 8.23043 12.0802 8.38164Z" fill="#909090"/>
</svg>
