<svg width="17" height="17" viewBox="0 0 17 17" fill="none" xmlns="http://www.w3.org/2000/svg">
<path fill-rule="evenodd" clip-rule="evenodd" d="M16.3758 14.7107L13.2441 11.5978C14.2139 10.1752 14.6154 8.44427 14.3701 6.74319C14.1248 5.04211 13.2504 3.49302 11.9175 2.3985C10.5847 1.30399 8.8893 0.742667 7.16242 0.824188C5.43553 0.905708 3.80125 1.62421 2.57878 2.83935C1.35632 4.05449 0.63348 5.67899 0.551469 7.39552C0.469457 9.11206 1.03416 10.7973 2.13527 12.1222C3.23638 13.447 4.79481 14.3162 6.50615 14.56C8.21749 14.8039 9.95881 14.4048 11.39 13.4407L14.5217 16.5537C14.7676 16.7981 15.1011 16.9354 15.4488 16.9354C15.7965 16.9354 16.13 16.7981 16.3758 16.5537C16.6217 16.3093 16.7598 15.9779 16.7598 15.6322C16.7598 15.2866 16.6217 14.9551 16.3758 14.7107ZM7.49021 12.3306C6.57257 12.331 5.67544 12.0608 4.9123 11.5543C4.14916 11.0477 3.55431 10.3276 3.20298 9.48497C2.85165 8.64233 2.75963 7.71504 2.93856 6.82041C3.1175 5.92578 3.55935 5.104 4.20821 4.45902C4.85708 3.81404 5.68382 3.37484 6.58384 3.19698C7.48387 3.01912 8.41674 3.11058 9.26446 3.45981C10.1122 3.80903 10.8367 4.40032 11.3462 5.15889C11.8558 5.91745 12.1276 6.80921 12.1273 7.72135C12.1273 8.94381 11.6387 10.1162 10.7691 10.9806C9.8995 11.845 8.72004 12.3306 7.49021 12.3306Z" fill="#9BA3B5"/>
</svg>
