<svg width="14" height="14" viewBox="0 0 14 14" fill="none" xmlns="http://www.w3.org/2000/svg">
<g clip-path="url(#clip0_57_1857)">
<path d="M13.1538 13.5331C13.0581 13.4746 12.9531 13.4222 12.8635 13.3514C12.3108 12.9139 11.7612 12.4703 11.2054 12.0329C11.1498 11.9897 11.0664 11.9589 10.9985 11.9589C9.25689 11.9559 7.51532 11.9559 5.77375 11.9559C4.99252 11.9559 4.36259 11.4722 4.20202 10.7267C4.14643 10.471 4.1557 10.1969 4.16496 9.93193C4.17114 9.73169 4.36876 9.5869 4.56639 9.59614C4.7671 9.60539 4.93076 9.7625 4.94002 9.96889C4.9462 10.086 4.94311 10.2061 4.94311 10.3262C4.9462 10.8407 5.2766 11.1703 5.79228 11.1703C7.5709 11.1703 9.34953 11.1734 11.1282 11.1672C11.3103 11.1672 11.4616 11.2196 11.6006 11.3336C11.9711 11.6386 12.351 11.9343 12.7246 12.2331C12.7524 12.2547 12.7802 12.2762 12.8296 12.3101C12.8296 12.2516 12.8296 12.2115 12.8296 12.1746C12.8296 10.0305 12.8296 7.88643 12.8296 5.74235C12.8296 5.22174 12.5486 4.91676 12.0298 4.87055C11.7982 4.85207 11.6377 4.67648 11.6469 4.45467C11.6593 4.23595 11.8384 4.08193 12.073 4.08501C12.8141 4.09425 13.4688 4.65491 13.5954 5.38193C13.5985 5.40965 13.6108 5.4343 13.6201 5.46202C13.6201 8.05278 13.6201 10.6435 13.6201 13.2343C13.5583 13.3698 13.4595 13.4684 13.3236 13.53C13.2711 13.5331 13.2125 13.5331 13.1538 13.5331Z" fill="#909090"/>
<path d="M0.999908 6.3923C0.999908 5.11079 0.99682 3.82619 0.999908 2.54467C1.003 1.77145 1.49397 1.14918 2.24124 0.979745C2.36475 0.95202 2.49444 0.942778 2.62105 0.942778C4.95549 0.939697 7.29302 0.939697 9.63055 0.939697C10.5693 0.939697 11.2548 1.62666 11.2548 2.56316C11.2548 4.10344 11.2548 5.64373 11.2548 7.18709C11.2548 8.12974 10.5662 8.81055 9.6182 8.81055C7.75311 8.81055 5.88803 8.81055 4.02295 8.81363C3.95193 8.81363 3.86855 8.84135 3.81606 8.88756C3.13364 9.44823 2.4543 10.0181 1.77188 10.5819C1.71321 10.6312 1.65145 10.6835 1.58352 10.7205C1.3581 10.8499 1.08328 10.7359 1.01843 10.4833C1.003 10.4217 0.999908 10.3539 0.999908 10.2892C0.999908 8.98922 0.999908 7.6923 0.999908 6.3923ZM1.78732 9.53756C1.83672 9.5006 1.8676 9.47595 1.89848 9.45131C2.40798 9.02927 2.91748 8.61031 3.42081 8.18211C3.55359 8.07121 3.69563 8.01884 3.87164 8.02192C5.77378 8.025 7.67592 8.025 9.57805 8.025C10.1462 8.025 10.4643 7.70771 10.4643 7.14396C10.4643 5.63448 10.4643 4.12809 10.4643 2.61861C10.4643 2.04562 10.1462 1.72832 9.57497 1.72832C7.27449 1.72832 4.97402 1.72832 2.67354 1.72832C2.10846 1.72832 1.78732 2.04562 1.78732 2.61245C1.78732 4.8705 1.78732 7.12856 1.78732 9.38662C1.78732 9.42666 1.78732 9.46979 1.78732 9.53756Z" fill="#909090"/>
<path d="M6.12592 4.08804C5.34469 4.08804 4.56654 4.09112 3.78531 4.08804C3.48887 4.08804 3.29434 3.82927 3.39315 3.56434C3.45182 3.40723 3.56916 3.32098 3.7359 3.3025C3.77605 3.29941 3.81928 3.29941 3.85942 3.29941C5.37557 3.29941 6.89171 3.29941 8.40786 3.29941C8.46653 3.29941 8.5252 3.29633 8.58078 3.30866C8.77531 3.3487 8.90809 3.52738 8.89265 3.72145C8.87721 3.92477 8.71356 4.08188 8.49741 4.08496C7.96629 4.08804 7.43826 4.08496 6.90715 4.08804C6.64468 4.08804 6.3853 4.08804 6.12592 4.08804Z" fill="#909090"/>
<path d="M5.33836 4.87661C5.86022 4.87661 6.38207 4.87353 6.90392 4.87661C7.20345 4.87969 7.3949 5.16003 7.28065 5.42188C7.20963 5.58515 7.07685 5.66217 6.90084 5.66217C6.51794 5.66217 6.13813 5.66217 5.75523 5.66217C5.09751 5.66217 4.43978 5.66525 3.78515 5.66217C3.48563 5.66217 3.29109 5.38491 3.40225 5.12306C3.47327 4.95363 3.60914 4.87661 3.79133 4.87661C4.30392 4.87661 4.82268 4.87661 5.33836 4.87661Z" fill="#909090"/>
</g>
<defs>
<clipPath id="clip0_57_1857">
<rect width="13" height="13" fill="white" transform="translate(0.907227 0.754883)"/>
</clipPath>
</defs>
</svg>
