<svg width="48" height="10" viewBox="0 0 48 10" fill="none" xmlns="http://www.w3.org/2000/svg">
<path d="M4.67651 0.996523L5.86145 3.36914C5.87613 3.39834 5.89778 3.42357 5.92452 3.44267C5.95127 3.46178 5.98232 3.47418 6.01499 3.47881L8.6659 3.86026C8.70328 3.86572 8.73837 3.88137 8.76722 3.90547C8.79607 3.92957 8.81752 3.96114 8.82917 3.99664C8.84082 4.03213 8.84219 4.07014 8.83313 4.10636C8.82408 4.14259 8.80496 4.17559 8.77792 4.20166L6.86 6.04788C6.83633 6.0705 6.8186 6.09847 6.80834 6.12937C6.79807 6.16028 6.79559 6.19318 6.80109 6.22525L7.25401 8.83246C7.25975 8.86867 7.25532 8.90574 7.2412 8.93963C7.22708 8.97352 7.20382 9.00294 7.17394 9.02467C7.14406 9.04641 7.10871 9.05963 7.07174 9.0629C7.03478 9.06617 6.99761 9.05936 6.9643 9.04321L4.59056 7.81304C4.56101 7.79684 4.52778 7.78834 4.49399 7.78834C4.46019 7.78834 4.42696 7.79684 4.39741 7.81304L2.0285 9.04321C1.99518 9.05936 1.95802 9.06617 1.92106 9.0629C1.88409 9.05963 1.84874 9.04641 1.81886 9.02467C1.78898 9.00294 1.76571 8.97352 1.7516 8.93963C1.73748 8.90574 1.73304 8.86867 1.73878 8.83246L2.18688 6.22525C2.19238 6.19318 2.1899 6.16028 2.17963 6.12937C2.16937 6.09847 2.15164 6.0705 2.12797 6.04788L0.21005 4.2007C0.183014 4.17464 0.163891 4.14163 0.154835 4.10541C0.14578 4.06918 0.147154 4.03118 0.158801 3.99569C0.170448 3.96019 0.191905 3.92861 0.220754 3.90452C0.249602 3.88042 0.284694 3.86476 0.322073 3.85931L2.97298 3.47786C3.00565 3.47323 3.0367 3.46082 3.06345 3.44172C3.09019 3.42262 3.11184 3.39738 3.12653 3.36819L4.31146 0.996523C4.32833 0.962961 4.35436 0.934717 4.3866 0.914972C4.41885 0.895227 4.45604 0.884766 4.49399 0.884766C4.53193 0.884766 4.56912 0.895227 4.60137 0.914972C4.63361 0.934717 4.65964 0.962961 4.67651 0.996523Z" fill="#FFB82D"/>
<path d="M15.1226 0.996523L16.2378 3.36914C16.2516 3.39834 16.272 3.42357 16.2972 3.44267C16.3224 3.46178 16.3516 3.47418 16.3823 3.47881L18.8773 3.86026C18.9125 3.86572 18.9455 3.88137 18.9727 3.90547C18.9998 3.92957 19.02 3.96114 19.031 3.99664C19.0419 4.03213 19.0432 4.07014 19.0347 4.10636C19.0262 4.14259 19.0082 4.17559 18.9827 4.20166L17.1776 6.04788C17.1554 6.0705 17.1387 6.09847 17.129 6.12937C17.1193 6.16028 17.117 6.19318 17.1222 6.22525L17.5485 8.83246C17.5539 8.86867 17.5497 8.90574 17.5364 8.93963C17.5231 8.97352 17.5012 9.00294 17.4731 9.02467C17.445 9.04641 17.4117 9.05963 17.3769 9.0629C17.3421 9.06617 17.3072 9.05936 17.2758 9.04321L15.0417 7.81304C15.0139 7.79684 14.9826 7.78834 14.9508 7.78834C14.919 7.78834 14.8877 7.79684 14.8599 7.81304L12.6303 9.04321C12.599 9.05936 12.564 9.06617 12.5292 9.0629C12.4944 9.05963 12.4612 9.04641 12.433 9.02467C12.4049 9.00294 12.383 8.97352 12.3697 8.93963C12.3564 8.90574 12.3523 8.86867 12.3577 8.83246L12.7794 6.22525C12.7846 6.19318 12.7822 6.16028 12.7726 6.12937C12.7629 6.09847 12.7462 6.0705 12.724 6.04788L10.9189 4.2007C10.8934 4.17464 10.8754 4.14163 10.8669 4.10541C10.8584 4.06918 10.8597 4.03118 10.8706 3.99569C10.8816 3.96019 10.9018 3.92861 10.9289 3.90452C10.9561 3.88042 10.9891 3.86476 11.0243 3.85931L13.5193 3.47786C13.55 3.47323 13.5792 3.46082 13.6044 3.44172C13.6296 3.42262 13.65 3.39738 13.6638 3.36819L14.779 0.996523C14.7949 0.962961 14.8194 0.934717 14.8497 0.914972C14.8801 0.895227 14.9151 0.884766 14.9508 0.884766C14.9865 0.884766 15.0215 0.895227 15.0519 0.914972C15.0822 0.934717 15.1067 0.962961 15.1226 0.996523Z" fill="#FFB82D"/>
<path d="M24.5903 0.996523L25.7753 3.36914C25.7899 3.39834 25.8116 3.42357 25.8383 3.44267C25.8651 3.46178 25.8961 3.47418 25.9288 3.47881L28.5797 3.86026C28.6171 3.86572 28.6522 3.88137 28.681 3.90547C28.7099 3.92957 28.7313 3.96114 28.743 3.99664C28.7546 4.03213 28.756 4.07014 28.747 4.10636C28.7379 4.14259 28.7188 4.17559 28.6917 4.20166L26.7738 6.04788C26.7502 6.0705 26.7324 6.09847 26.7222 6.12937C26.7119 6.16028 26.7094 6.19318 26.7149 6.22525L27.1678 8.83246C27.1736 8.86867 27.1691 8.90574 27.155 8.93963C27.1409 8.97352 27.1176 9.00294 27.0878 9.02467C27.0579 9.04641 27.0225 9.05963 26.9856 9.0629C26.9486 9.06617 26.9114 9.05936 26.8781 9.04321L24.5044 7.81304C24.4748 7.79684 24.4416 7.78834 24.4078 7.78834C24.374 7.78834 24.3408 7.79684 24.3112 7.81304L21.9423 9.04321C21.909 9.05936 21.8718 9.06617 21.8349 9.0629C21.7979 9.05963 21.7626 9.04641 21.7327 9.02467C21.7028 9.00294 21.6795 8.97352 21.6654 8.93963C21.6513 8.90574 21.6469 8.86867 21.6526 8.83246L22.1007 6.22525C22.1062 6.19318 22.1037 6.16028 22.0935 6.12937C22.0832 6.09847 22.0655 6.0705 22.0418 6.04788L20.1239 4.2007C20.0968 4.17464 20.0777 4.14163 20.0687 4.10541C20.0596 4.06918 20.061 4.03118 20.0726 3.99569C20.0843 3.96019 20.1057 3.92861 20.1346 3.90452C20.1634 3.88042 20.1985 3.86476 20.2359 3.85931L22.8868 3.47786C22.9195 3.47323 22.9505 3.46082 22.9773 3.44172C23.004 3.42262 23.0257 3.39738 23.0403 3.36819L24.2253 0.996523C24.2422 0.962961 24.2682 0.934717 24.3004 0.914972C24.3327 0.895227 24.3699 0.884766 24.4078 0.884766C24.4457 0.884766 24.4829 0.895227 24.5152 0.914972C24.5474 0.934717 24.5735 0.962961 24.5903 0.996523Z" fill="#FFB82D"/>
<path d="M34.0366 0.996523L35.1519 3.36914C35.1657 3.39834 35.1861 3.42357 35.2112 3.44267C35.2364 3.46178 35.2656 3.47418 35.2964 3.47881L37.7914 3.86026C37.8265 3.86572 37.8596 3.88137 37.8867 3.90547C37.9139 3.92957 37.9341 3.96114 37.945 3.99664C37.956 4.03213 37.9573 4.07014 37.9488 4.10636C37.9402 4.14259 37.9222 4.17559 37.8968 4.20166L36.0917 6.04788C36.0694 6.0705 36.0527 6.09847 36.0431 6.12937C36.0334 6.16028 36.0311 6.19318 36.0363 6.22525L36.4625 8.83246C36.4679 8.86867 36.4638 8.90574 36.4505 8.93963C36.4372 8.97352 36.4153 9.00294 36.3872 9.02467C36.359 9.04641 36.3258 9.05963 36.291 9.0629C36.2562 9.06617 36.2212 9.05936 36.1899 9.04321L33.9557 7.81304C33.9279 7.79684 33.8967 7.78834 33.8649 7.78834C33.8331 7.78834 33.8018 7.79684 33.774 7.81304L31.5444 9.04321C31.513 9.05936 31.4781 9.06617 31.4433 9.0629C31.4085 9.05963 31.3752 9.04641 31.3471 9.02467C31.319 9.00294 31.2971 8.97352 31.2838 8.93963C31.2705 8.90574 31.2663 8.86867 31.2717 8.83246L31.6935 6.22525C31.6986 6.19318 31.6963 6.16028 31.6866 6.12937C31.677 6.09847 31.6603 6.0705 31.638 6.04788L29.8329 4.2007C29.8075 4.17464 29.7895 4.14163 29.781 4.10541C29.7724 4.06918 29.7737 4.03118 29.7847 3.99569C29.7956 3.96019 29.8158 3.92861 29.843 3.90452C29.8701 3.88042 29.9032 3.86476 29.9384 3.85931L32.4333 3.47786C32.4641 3.47323 32.4933 3.46082 32.5185 3.44172C32.5436 3.42262 32.564 3.39738 32.5778 3.36819L33.6931 0.996523C33.709 0.962961 33.7334 0.934717 33.7638 0.914972C33.7941 0.895227 33.8291 0.884766 33.8649 0.884766C33.9006 0.884766 33.9356 0.895227 33.9659 0.914972C33.9963 0.934717 34.0208 0.962961 34.0366 0.996523Z" fill="#FFB82D"/>
<path d="M42.9929 0.996523L44.1779 3.36914C44.1925 3.39834 44.2142 3.42357 44.2409 3.44267C44.2677 3.46178 44.2987 3.47418 44.3314 3.47881L46.9823 3.86026C47.0197 3.86572 47.0548 3.88137 47.0836 3.90547C47.1125 3.92957 47.1339 3.96114 47.1456 3.99664C47.1572 4.03213 47.1586 4.07014 47.1495 4.10636C47.1405 4.14259 47.1214 4.17559 47.0943 4.20166L45.1764 6.04788C45.1527 6.0705 45.135 6.09847 45.1247 6.12937C45.1145 6.16028 45.112 6.19318 45.1175 6.22525L45.5704 8.83246C45.5762 8.86867 45.5717 8.90574 45.5576 8.93963C45.5435 8.97352 45.5202 9.00294 45.4903 9.02467C45.4605 9.04641 45.4251 9.05963 45.3881 9.0629C45.3512 9.06617 45.314 9.05936 45.2807 9.04321L42.907 7.81304C42.8774 7.79684 42.8442 7.78834 42.8104 7.78834C42.7766 7.78834 42.7434 7.79684 42.7138 7.81304L40.3449 9.04321C40.3116 9.05936 40.2744 9.06617 40.2375 9.0629C40.2005 9.05963 40.1651 9.04641 40.1353 9.02467C40.1054 9.00294 40.0821 8.97352 40.068 8.93963C40.0539 8.90574 40.0495 8.86867 40.0552 8.83246L40.5033 6.22525C40.5088 6.19318 40.5063 6.16028 40.496 6.12937C40.4858 6.09847 40.468 6.0705 40.4444 6.04788L38.5265 4.2007C38.4994 4.17464 38.4803 4.14163 38.4712 4.10541C38.4622 4.06918 38.4636 4.03118 38.4752 3.99569C38.4869 3.96019 38.5083 3.92861 38.5372 3.90452C38.566 3.88042 38.6011 3.86476 38.6385 3.85931L41.2894 3.47786C41.3221 3.47323 41.3531 3.46082 41.3799 3.44172C41.4066 3.42262 41.4282 3.39738 41.4429 3.36819L42.6279 0.996523C42.6447 0.962961 42.6708 0.934717 42.703 0.914972C42.7353 0.895227 42.7724 0.884766 42.8104 0.884766C42.8483 0.884766 42.8855 0.895227 42.9178 0.914972C42.95 0.934717 42.976 0.962961 42.9929 0.996523Z" fill="#FFB82D"/>
</svg>
