<svg width="20" height="13" viewBox="0 0 20 13" fill="none" xmlns="http://www.w3.org/2000/svg">
<g clip-path="url(#clip0_57_1681)">
<path d="M9.9713 12.2201C7.80963 12.2201 6.10375 11.5351 4.51594 10.5372C2.99915 9.58319 1.70034 8.39959 0.565836 7.05084C0.157944 6.56639 0.15299 6.39966 0.565836 5.91521C2.00997 4.21885 3.68035 2.77729 5.72558 1.75413C8.61551 0.307069 11.4608 0.451775 14.2583 1.99006C16.1186 3.01244 17.6618 4.37928 19.0044 5.96476C19.2521 6.25732 19.3776 6.55302 19.0993 6.8849C17.3216 9.0083 15.2458 10.7668 12.5359 11.7443C11.6433 12.0644 10.7136 12.2272 9.9713 12.2201ZM1.683 6.47909C3.24438 8.20141 4.95851 9.67049 7.16724 10.5316C9.08862 11.2811 10.9786 11.171 12.843 10.3382C14.1534 9.75307 15.3003 8.94617 16.3398 8.00008C16.8625 7.52428 17.3447 7.00916 17.8525 6.50583C16.4488 4.93845 14.918 3.61564 13.0222 2.72224C11.7011 2.0978 10.304 1.76357 8.8277 2.01444C5.78751 2.51383 3.66218 4.36906 1.683 6.47595V6.47909Z" fill="#ACACAC"/>
<path d="M13.5187 6.47079C13.5189 7.41887 13.1242 8.32832 12.4213 8.99961C11.7184 9.67089 10.7646 10.0492 9.76919 10.0515C8.77387 10.0506 7.81955 9.67372 7.11568 9.00345C6.4118 8.33318 6.01586 7.4243 6.01477 6.47629C6.01974 5.53515 6.41379 4.63376 7.11157 3.96738C7.80936 3.301 8.75468 2.92328 9.74277 2.91605C10.738 2.91166 11.6945 3.28343 12.4024 3.94983C13.1102 4.61623 13.5117 5.52284 13.5187 6.47079ZM7.27065 6.46371C7.26602 7.09434 7.52423 7.70097 7.98861 8.1505C8.45299 8.60003 9.08563 8.85576 9.74772 8.86158C10.4095 8.86556 11.0459 8.61942 11.5173 8.17713C11.9888 7.73484 12.2569 7.13252 12.2628 6.50224C12.2678 5.87149 12.0098 5.26462 11.5453 4.81499C11.0808 4.36537 10.4479 4.10977 9.78571 4.10437C9.12416 4.10101 8.48815 4.34736 8.01681 4.78951C7.54548 5.23166 7.27719 5.83363 7.27065 6.46371Z" fill="#ACACAC"/>
</g>
<defs>
<clipPath id="clip0_57_1681">
<rect width="19" height="11.4727" fill="white" transform="translate(0.260498 0.74707)"/>
</clipPath>
</defs>
</svg>
